<?xml version="1.0" encoding="utf-8"?>
<!-- Generator: Adobe Illustrator 22.1.0, SVG Export Plug-In . SVG Version: 6.00 Build 0)  -->
<svg version="1.1" xmlns="http://www.w3.org/2000/svg" xmlns:xlink="http://www.w3.org/1999/xlink" x="0px" y="0px"
	 viewBox="0 0 1366 768" style="enable-background:new 0 0 1366 768;" xml:space="preserve">
<style type="text/css">
	.st0{clip-path:url(#SVGID_2_);}
	.st1{fill:#FCC062;}
	.st2{opacity:0.4;}
	.st3{fill:#F7931E;}
	.st4{fill:#F15A24;}
	.st5{fill:#ED1C24;}
	.st6{fill:#22B573;}
	.st7{fill:#F2F2F2;}
	.st8{fill:#FFFFCC;}
	.st9{fill:#FFFFFF;}
	.st10{fill:#7AD3AB;}
	.st11{fill:#1A8856;}
</style>
<g id="Layer_1">
	<g>
		<defs>
			
				<rect id="SVGID_1_" x="0" y="487" transform="matrix(1 -3.315221e-03 3.315221e-03 1 -2.0749 2.2694)" width="1367" height="280"/>
		</defs>
		<clipPath id="SVGID_2_">
			<use xlink:href="#SVGID_1_"  style="overflow:visible;"/>
		</clipPath>
		<g class="st0">
			<polygon class="st1" points="0.3,707.8 0.3,707.8 0.3,707.8 			"/>
			<polygon class="st1" points="1366.2,683.6 1366.2,683.6 1366.2,683.6 			"/>
			<path class="st1" d="M1366.2,683.6C1204,660.1,982.4,646,738.1,646.8c-305.4,1-575.2,25.1-737.8,61c0,0,0,0,0,0l0.2,62.4
				l1366-4.5L1366.2,683.6C1366.2,683.6,1366.2,683.6,1366.2,683.6z"/>
			<g class="st2">
				<g>
					<path class="st3" d="M-9.8,798.4c0.1,0.4,0.2,0.9,0.3,1.3c-1.1-8.5-2.3-17-3.4-25.5c0.1,1.4,0.1,2.6-0.1,3.9
						c1.1-8.5,2.3-17,3.4-25.5c-0.2,0.9-0.4,1.7-0.7,2.5c3.2-7.6,6.5-15.3,9.7-22.9c-0.5,1.3-1.1,2.3-1.9,3.5c5-6.5,10-13,15-19.4
						c-0.9,1.1-1.7,2-2.7,2.9c6.5-5,13-10,19.4-15c-1.1,0.8-2.1,1.4-3.4,2c7.6-3.2,15.3-6.5,22.9-9.7c-0.8,0.3-1.7,0.5-2.6,0.7
						c8.5-1.1,17-2.3,25.5-3.4c-1.4,0.1-2.6,0.1-3.9-0.1c8.5,1.1,17,2.3,25.5,3.4c-0.9-0.2-1.7-0.4-2.5-0.7
						c7.6,3.2,15.3,6.5,22.9,9.7c-1.3-0.6-2.3-1.2-3.4-2c6.5,5,13,10,19.4,15c-1.1-0.9-1.9-1.8-2.8-2.8c5,6.5,10,13,15,19.4
						c-0.8-1.1-1.4-2.2-1.9-3.5c3.2,7.6,6.5,15.3,9.7,22.9c-0.3-0.8-0.5-1.7-0.7-2.5c1.1,8.5,2.3,17,3.4,25.5c0-0.4-0.1-0.9-0.1-1.3
						c-40.5,30.9-81,61.7-121.5,92.6c21.4,8.8,44,13.9,67.3,14.3c14.6,0.2,30.2-1.4,43.8-6.8c10.4-4.1,21.3-7.6,30.5-14.2
						c10.5-7.5,18.4-14.5,27.7-22.3c-6.5,5-13,10-19.4,15c2.1-1.6,4.2-2.9,6.7-4c-7.6,3.2-15.3,6.5-22.9,9.7
						c2.4-0.9,4.8-1.5,7.3-1.8c-8.5,1.1-17,2.3-25.5,3.4c3.7-0.3,7.3-0.2,10.9,0.3c-8.5-1.1-17-2.3-25.5-3.4
						c7.5,1.1,14.6,3.4,21.8,5.4c3.2,0.9,6.3,1.5,9.6,2c10.8,1.7,22.1,4,33.2,4c1.6,0,3.2-0.1,4.8-0.2c8.9-0.8,19.4-2,28.2-3.8
						c10.4-2.1,21.7-7.4,30.3-12.1c20.2-11,32.4-27.1,45-45.6c-5,6.5-10,13-15,19.4c0.5-0.7,1.1-1.4,1.8-1.9c-6.5,5-13,10-19.4,15
						c0.7-0.6,1.6-1.1,2.5-1.4c-7.6,3.2-15.3,6.5-22.9,9.7c0.5-0.1,1-0.2,1.4-0.3c-8.5,1.1-17,2.3-25.5,3.4c1-0.1,2-0.1,3,0.2
						c-8.5-1.1-17-2.3-25.5-3.4c1,0.2,2,0.5,3,1c-7.6-3.2-15.3-6.5-22.9-9.7c3.9,1.9,7.4,4.5,11.4,6.4c10.6,5.2,21.7,10.7,33.3,13.3
						c26.1,5.9,46.1,5.6,72.2,0.2c10.8-2.2,24.3-8.7,32.7-12.8c3.7-1.8,7.1-3.8,10.4-6.1c6.4-4.5,12.3-9.6,19.5-12.7
						c-7.6,3.2-15.3,6.5-22.9,9.7c2.2-0.8,4.4-1.5,6.7-1.8c-8.5,1.1-17,2.3-25.5,3.4c2.2-0.2,4.2-0.2,6.4,0
						c-8.5-1.1-17-2.3-25.5-3.4c4.1,0.6,8.1,1.7,12.2,2.5c5.1,1,21.3,3.9,30.7,3.8c5.9,0,12.4-1.4,17.9-2.1
						c8.2-1.1,15.9-2.1,23.8-4.1c4.3-1.1,8.5-2.1,12.8-2.8c-8.5,1.1-17,2.3-25.5,3.4c4.1-0.5,8-0.4,12.1,0.1
						c-8.5-1.1-17-2.3-25.5-3.4c12.2,1.9,23.6,7,35.8,9c13.6,2.3,28.5,4.8,42.6,4.4c14.3-0.5,28.7-2.8,42.7-5.3
						c25.7-4.5,49-17.6,74.7-21.6c-8.5,1.1-17,2.3-25.5,3.4c5.5-0.7,10.9-0.9,16.4-0.3c-8.5-1.1-17-2.3-25.5-3.4
						c4.7,0.6,9.1,1.9,13.7,3.1c12.1,3.2,25,5.3,37.4,5.4c17.9,0.1,34.2-5.3,51.4-7.9c-8.5,1.1-17,2.3-25.5,3.4
						c6-0.7,11.9-0.5,17.9,0.2c-8.5-1.1-17-2.3-25.5-3.4c6.6,0.9,13.1,2.3,19.6,3.6c14.3,2.9,28.9,5.1,43.5,6.3
						c14.5,1.2,30.2-2.1,44.1-4.1c6.9-1,13.7-2.2,20.6-3.2c-8.5,1.1-17,2.3-25.5,3.4c14.1-1.8,28.1-0.7,42.2,0.3
						c14.8,1,29.5,2,44.3,3c29.2,2,58.4,4,87.5,6c13.2,0.5,25.5-2.3,37-8.3c11.9-3.9,22.2-10.5,30.9-19.8c9.4-8.7,16-19,19.8-30.9
						c6-11.4,8.8-23.8,8.3-37c-1.1-8.5-2.3-17-3.4-25.5c-4.6-16.3-12.8-30.4-24.7-42.4c-6.5-5-13-10-19.4-15
						c-15-8.7-31.1-13.1-48.5-13.1c-33.1-2.3-66.2-4.5-99.3-6.8c-16.3-1.1-32.6-2.5-48.9-3.3c-24.2-1.2-47.9,4.1-71.8,7.4
						c8.5-1.1,17-2.3,25.5-3.4c-8.1,1-15.9,1.1-24,0.1c8.5,1.1,17,2.3,25.5,3.4c-6.3-0.9-12.5-2.3-18.8-3.5
						c-14-2.9-28.3-4.9-42.5-6.2c-20.6-1.9-40.4,4.8-60.5,7.7c8.5-1.1,17-2.3,25.5-3.4c-2.9,0.3-5.7,0.4-8.7,0.1
						c8.5,1.1,17,2.3,25.5,3.4c-4.9-0.7-9.5-2.1-14.3-3.3c-2.6-0.7-5.2-1.1-7.9-1.5c-10.2-1.5-20.6-3.6-31-3.8
						c-2.7-0.1-5.5,0.1-8.2,0.4c-10.3,1.1-20.8,2.4-31,4.2c-5.5,1-10.9,2.5-16.2,4.2c-20.3,6.5-39.8,14.8-61.2,17.9
						c8.5-1.1,17-2.3,25.5-3.4c-9,1.2-18,1.4-27.1,0.3c8.5,1.1,17,2.3,25.5,3.4c-6.5-0.9-12.7-2.6-19-4.5
						c-10.5-3.2-20.3-4.9-31.3-6.4c-6.9-0.9-14.3-2.5-21.4-2.2c-11.2,0.5-22.3,2.3-33.3,4.5c-6.6,1.3-13,3.4-19.6,4.4
						c8.5-1.1,17-2.3,25.5-3.4c-3.5,0.4-6.9,0.4-10.4,0c8.5,1.1,17,2.3,25.5,3.4c-3.2-0.6-6.4-1.4-9.6-2c-9.1-1.7-18.9-3.1-28.1-3.9
						c-1.7-0.1-3.3-0.2-5-0.2c-23,0.8-39.5,5.9-59.8,16.6c-9.5,5-17,12.9-26.7,17.4c7.6-3.2,15.3-6.5,22.9-9.7
						c-4.4,1.9-8.9,3.1-13.6,3.7c8.5-1.1,17-2.3,25.5-3.4c-4.2,0.5-8.4,0.4-12.6,0c8.5,1.1,17,2.3,25.5,3.4
						c-4.2-0.6-8.2-1.6-12.2-3.2c7.6,3.2,15.3,6.5,22.9,9.7c-4-1.7-7.5-4.1-11.3-6.2c-17.6-9.7-35.6-15.7-55.9-15.8
						c-25.9-0.1-55.2,10.3-73.2,29.9c-7.7,8.4-13.7,17.9-20.5,27c5-6.5,10-13,15-19.4c-1.1,1.3-2.3,2.5-3.7,3.6c6.5-5,13-10,19.4-15
						c-1.4,1-2.8,1.8-4.4,2.5c7.6-3.2,15.3-6.5,22.9-9.7c-2.4,1-4.9,1.6-7.5,2.1c8.5-1.1,17-2.3,25.5-3.4c-4.6,0.6-9.2,0.4-13.8-0.2
						c8.5,1.1,17,2.3,25.5,3.4c-5.8-0.9-11.4-2.6-17.1-4.1c-14.2-4-29.2-6.1-43.8-7.1c-22.9-1.5-43.3,5.6-63.5,15.3
						c-12.9,6.2-22.7,17.1-33.7,26c6.5-5,13-10,19.4-15c-2.4,1.8-4.8,3.3-7.5,4.5c7.6-3.2,15.3-6.5,22.9-9.7c-3.6,1.5-7.2,2.4-11,3
						c8.5-1.1,17-2.3,25.5-3.4c-5,0.5-9.8,0.4-14.8-0.2c8.5,1.1,17,2.3,25.5,3.4c-11.9-1.7-23.2-5.7-34.3-10.3c-17-4.6-34-4.6-51,0
						c-12.5,3-23.4,8.7-32.6,17.2c-10.5,6.8-18.7,15.7-24.7,26.9c-8.7,15-13.1,31.1-13.1,48.5c0.8,9.4,1,19.2,3.8,28.1
						c1.3,4.4,3.1,8.6,5.2,12.7c1.7,4.2,3.5,8.5,5.4,12.7c5.1,9,11.5,17.6,19.2,24.5c6.5,5,13,10,19.4,15c0.7,0.5,1.5,1,2.2,1.4
						c7.7,4.5,16.2,8,24.8,10.4c18.3,5.2,27.5,4.6,44.1,2.3c15.9-2.1,25.1-4.5,40.6-13.3c3.7-2.6,7.3-5.4,10.8-8.3
						c3.7-2.6,7.3-5.4,10.7-8.4c5.8-6.1,15.8-19.9,16.8-21.4c0.7-1.2,1.3-2.3,1.9-3.5c3.8-7.8,8.2-17.1,10.4-25.5
						c1.1-8.5,2.3-17,3.4-25.5c0.1-0.7,0.2-1.3,0.2-2c0.4-9.6-1.9-19.3-3.8-28.8c-3-12.5-8.7-23.4-17.2-32.6
						c-6.8-10.5-15.7-18.7-26.9-24.7c-11-7-22.9-10.8-35.7-11.4c-12.8-2.9-25.5-2.3-38.3,1.7c-7.6,3.2-15.3,6.5-22.9,9.7
						c-14.4,8.5-25.9,20-34.4,34.4c-3.2,7.6-6.5,15.3-9.7,22.9C-14.4,764.4-14.4,781.4-9.8,798.4L-9.8,798.4z"/>
				</g>
			</g>
			<g class="st2">
				<g>
					<path class="st3" d="M911.3,827.3c23.9-0.3,47.9-0.4,71.8-0.4c11.6,0,23.3,0,34.9,0.1c11.6,0.1,23.4-0.5,34.9,0.8
						c-8.5-1.1-17-2.3-25.5-3.4c4,0.6,7.7,1.5,11.5,3.1c-7.6-3.2-15.3-6.5-22.9-9.7c10.1,4.6,20.3,9.3,30.7,13.3
						c3.7,1.4,7.4,2.3,11.4,3c15.7,2.5,30.8,4,46.5,5.1c16.2,1.1,32.4,2.2,48.6,3.3c15.9,1.1,31.7,2.2,47.6,3.3
						c15.6,1.1,31.4,1.4,46.9,3.5c-8.5-1.1-17-2.3-25.5-3.4c3.6,0.5,7,1.3,10.3,2.6c-7.6-3.2-15.3-6.5-22.9-9.7
						c2.3,1,4.4,2.2,6.5,3.8c-6.5-5-13-10-19.4-15c2.3,2,4.2,4.2,6.1,6.6c-5-6.5-10-13-15-19.4c7,9.1,13.3,19.5,21.7,27.4
						c15,14,29.6,22.5,48.8,28.9c16.1,5.4,33.2,6.1,49.8,3.9c19.9-2.6,39.7-5.3,59.6-7.9c13.2,0.5,25.5-2.3,37-8.3
						c11.9-3.9,22.2-10.5,30.9-19.8c9.4-8.7,16-19,19.8-30.9c6-11.4,8.8-23.8,8.3-37c-1.1-8.5-2.3-17-3.4-25.5
						c-4.6-16.3-12.8-30.4-24.7-42.4c-6.5-5-13-10-19.4-15c-15-8.7-31.1-13.1-48.5-13.1c-13.3,1.8-26.7,3.5-40,5.3
						c-12.2,1.6-25.2,4.8-37.5,3.7c8.5,1.1,17,2.3,25.5,3.4c-2.2-0.3-4.2-0.8-6.3-1.5c7.6,3.2,15.3,6.5,22.9,9.7
						c-1.5-0.7-2.8-1.4-4.1-2.3c6.5,5,13,10,19.4,15c-2.8-2.2-5-4.7-7.1-7.5c5,6.5,10,13,15,19.4c-6.8-8.8-12.9-18.5-20.7-26.4
						c-6.2-6.3-14.5-11.9-21.6-17c-1.7-1.2-3.3-2.2-5.1-3.2c-23.2-11.9-38.8-14.4-64.8-16.8c-17.3-1.6-34.8-2.4-52.2-3.6
						c-17.8-1.2-35.7-2.4-53.5-3.7c-17.5-1.2-35.3-1.8-52.8-3.8c8.5,1.1,17,2.3,25.5,3.4c-4.3-0.6-8.3-1.5-12.3-3.1
						c7.6,3.2,15.3,6.5,22.9,9.7c-6.4-2.8-12.7-5.7-19.2-8.4c-6.2-2.6-12.8-6.1-19.6-7.4c-13.7-2.7-27.9-4.4-41.9-4.5
						c-14.3-0.1-28.6-0.2-42.9-0.3c-28.6-0.1-57.2,0.1-85.8,0.4c-13.2-0.5-25.5,2.3-37,8.3c-11.9,3.9-22.2,10.5-30.9,19.8
						c-9.4,8.7-16,19-19.8,30.9c-6,11.4-8.8,23.8-8.3,37c1.1,8.5,2.3,17,3.4,25.5c4.6,16.3,12.8,30.4,24.7,42.4
						C862.1,816.3,885.4,827.6,911.3,827.3L911.3,827.3z"/>
				</g>
			</g>
			<g class="st2">
				<g>
					<path class="st3" d="M1125.7,839.3c4-8.7,8.5-17.2,10.8-26.5c5.1-20.3,4.1-33.2,0-53.4c-2.1-10.5-6.6-20.8-12.4-29.8
						c-10.9-17.2-21.9-28.1-39.1-39.1c-14.4-9.2-27.4-12.3-43.4-14.5c-5.4-0.7-12.2-2.2-18.1-2c-10.4,0.3-20.7,2.1-30.9,4
						c-4.2,0.8-8.3,2-12.4,3.1c-8.8,2.5-17.8,4.4-26.9,5.7c8.5-1.1,17-2.3,25.5-3.4c-5.5,0.7-10.9,1.4-16.4,0.9
						c8.5,1.1,17,2.3,25.5,3.4c-2.3-0.3-4.4-0.8-6.5-1.6c7.6,3.2,15.3,6.5,22.9,9.7c-2-0.9-3.9-2-5.7-3.3c6.5,5,13,10,19.4,15
						c-5.4-4.3-9.4-9.8-14-14.7c-16-17.2-35.4-27.7-57.3-35.2c-14.7-5-30.8-6.1-46.3-6.6c-7.8-0.2-15.6-0.1-23.4-1
						c8.5,1.1,17,2.3,25.5,3.4c-5.4-0.8-10.5-2.3-15.5-4.4c7.6,3.2,15.3,6.5,22.9,9.7c-12.8-5.6-25.4-11.7-38.5-16.8
						c-3.2-1.3-6.4-2.4-9.7-3.1c-10.7-2.3-22.1-3.7-33-4.5c-6.2-0.5-12.5,0-18.7,0.7c-14.6,1.7-29.1,4-43.6,6
						c8.5-1.1,17-2.3,25.5-3.4c-8.6,1.1-17.1,1.9-25.7,0.9c8.5,1.1,17,2.3,25.5,3.4c-13.2-1.9-25-8.6-38.1-11.1
						c-14-2.7-28.8-5.2-43.2-4.8c-14.2,0.5-28.4,2.8-42.4,5.3c-25.9,4.8-50.1,16.4-76.2,20.5c8.5-1.1,17-2.3,25.5-3.4
						c-3.9,0.5-7.7,0.7-11.6,0.4c8.5,1.1,17,2.3,25.5,3.4c-2.2-0.3-4.2-0.8-6.3-1.5c7.6,3.2,15.3,6.5,22.9,9.7
						c-2-0.9-3.7-1.9-5.5-3.2c6.5,5,13,10,19.4,15c-2.8-2.3-5.2-5.1-7.8-7.6c-4-4-8.7-7.2-13.2-10.6c-4.5-3.5-8.7-7.3-13.7-10
						c-18.8-10.3-34.5-14.1-55.9-15.1c-11.4-0.5-23.1,1.7-34.1,4.1c-10.1,2.2-24.7,9.3-31.5,12.5c-3.6,1.7-7.1,3.5-10.4,5.6
						c-6.8,4.3-13.3,9-20.8,12.3c7.6-3.2,15.3-6.5,22.9-9.7c-3.1,1.3-6.2,2.2-9.6,2.8c8.5-1.1,17-2.3,25.5-3.4
						c-2.2,0.2-4.3,0.3-6.4,0.1c8.5,1.1,17,2.3,25.5,3.4c-1.7-0.2-3.2-0.6-4.8-1.1c-12.8-4-25.5-4.6-38.3-1.7
						c-12.8,0.6-24.7,4.4-35.7,11.4c-11.2,6-20.2,14.3-26.9,24.7c-8.5,9.3-14.2,20.2-17.2,32.6c-1.1,8.5-2.3,17-3.4,25.5
						c0.1,17.3,4.4,33.5,13.1,48.5c5,6.5,10,13,15,19.4c12,11.9,26.1,20.1,42.4,24.7c1.3,0.4,2.7,0.7,4,0.9
						c7.6,1.4,19.4,3.2,27.1,3.6c1.4,0.1,2.7,0.1,4,0c8.5-0.4,18.8-2.1,27.1-3.6c2.8-0.5,5.4-1.2,8-2.1c9.6-3.5,19.3-7.5,28.4-12.1
						c9.5-4.8,17.6-11.7,27.3-16c-7.6,3.2-15.3,6.5-22.9,9.7c3.6-1.5,7.1-2.6,11-3.3c-8.5,1.1-17,2.3-25.5,3.4
						c2.6-0.3,5.1-0.3,7.7,0c-8.5-1.1-17-2.3-25.5-3.4c1.6,0.3,3,0.7,4.5,1.2c-7.6-3.2-15.3-6.5-22.9-9.7c2,0.9,3.7,1.9,5.4,3.2
						c-6.5-5-13-10-19.4-15c4,3.3,7.3,7.4,11.3,10.8c15.6,13.2,32.5,25.6,53.3,29.3c8.6,1.5,19.2,3.3,28,3.7
						c1.1,0.1,2.2,0.1,3.3,0.1c10.7-0.2,21.7-2.4,32.2-4c5.7-0.9,11.4-2.2,16.9-3.6c22.1-5.8,43.3-14.8,66-17.9
						c-8.5,1.1-17,2.3-25.5,3.4c7.9-1,15.7-1.2,23.6-0.2c-8.5-1.1-17-2.3-25.5-3.4c7.6,1.1,14.7,3.4,21.9,6.1
						c11.1,4.1,21.2,5.8,33.1,7.4c11.5,1.5,21.8,2.7,33.3,1.5c15.4-1.7,30.8-4.2,46.2-6.3c-8.5,1.1-17,2.3-25.5,3.4
						c8.5-1.1,16.9-1.7,25.5-0.6c-8.5-1.1-17-2.3-25.5-3.4c4.5,0.7,8.8,2,13.1,3.7c-7.6-3.2-15.3-6.5-22.9-9.7
						c12.9,5.5,25.4,11.5,38.5,16.8c13.1,5.4,27,6.2,41.1,7.8c11.3,1.3,22.8,0.4,34.1,1.8c-8.5-1.1-17-2.3-25.5-3.4
						c3.9,0.6,7.7,1.5,11.4,2.9c-7.6-3.2-15.3-6.5-22.9-9.7c2.7,1.2,5.2,2.6,7.6,4.4c-6.5-5-13-10-19.4-15
						c5.9,4.7,10.2,11,15.5,16.3c1.2,1.3,2.6,2.4,3.9,3.6c7.1,5.9,14.6,12.5,22.7,17.2c0.8,0.4,1.5,0.8,2.3,1.2
						c6.1,3.1,17.7,8,24.2,10.2c9.3,3.1,25.3,4.4,31.4,4.8c4.9,0.3,9.7-0.1,14.6-0.7c12.7-1.6,25.6-3,38.2-5.5
						c10.2-2,20-5.8,30.2-7.3c-8.5,1.1-17,2.3-25.5,3.4c3-0.3,5.9-0.3,8.9,0c-8.5-1.1-17-2.3-25.5-3.4c1.5,0.3,2.8,0.6,4.2,1.2
						c-7.6-3.2-15.3-6.5-22.9-9.7c1.6,0.8,3.1,1.6,4.5,2.7c-6.5-5-13-10-19.4-15c1,0.9,1.9,1.8,2.8,2.8c-5-6.5-10-13-15-19.4
						c1.1,1.4,1.9,2.8,2.6,4.4c-3.2-7.6-6.5-15.3-9.7-22.9c0.4,1.2,0.7,2.3,0.9,3.6c-1.1-8.5-2.3-17-3.4-25.5c0.1,0.8,0.1,1.6,0,2.4
						c1.1-8.5,2.3-17,3.4-25.5c-0.1,0.8-0.3,1.6-0.6,2.4c3.2-7.6,6.5-15.3,9.7-22.9c-0.2,0.4-0.4,0.8-0.5,1.2
						c-7,11-10.8,22.9-11.4,35.7c-2.9,12.8-2.3,25.5,1.7,38.3c3,12.5,8.7,23.4,17.2,32.6c6.8,10.5,15.7,18.7,26.9,24.7
						c22.3,11.8,49.3,17.7,74,9.7c7.6-3.2,15.3-6.5,22.9-9.7C1105.7,865.2,1117.2,853.8,1125.7,839.3L1125.7,839.3z"/>
				</g>
			</g>
			<g class="st2">
				<g>
					<path class="st3" d="M413.4,647c-25.9,0-51.9,0-77.8,0c-12.5,0-25.1-0.1-37.6,0c-14.4,0.1-28.2,2.3-42.6,4.4
						c-6,0.9-11.7,2.8-17.6,3.9c8.5-1.1,17-2.3,25.5-3.4c-1.8,0.2-3.3,0.3-5.1,0.2c8.5,1.1,17,2.3,25.5,3.4
						c-5.6-0.8-10.7-3.5-16.1-5.2c-12.2-3.9-26.9-5-38.8-6.3c-18.3-2.1-37.2,1.6-55.1,4.4c-21.6,3.3-42.4,10.4-64,13.3
						c8.5-1.1,17-2.3,25.5-3.4c-6.6,0.8-13.2,1.3-19.8,1.1c-8.5,1.1-17,2.3-25.5,3.4c-7.6,3.2-15.3,6.5-22.9,9.7
						c-6.5,5-13,10-19.4,15c-9.4,8.7-16,19-19.8,30.9c-4.3,7.5-6.5,15.6-6.6,24.2c-2.3,8.5-2.3,17,0,25.5c0,8.7,2.2,16.7,6.6,24.2
						c3.9,11.9,10.5,22.2,19.8,30.9c1.1,1.1,2.1,2.2,3,3.4c-5-6.5-10-13-15-19.4c1.2,1.7,2.1,3.4,3,5.3c-3.2-7.6-6.5-15.3-9.7-22.9
						c0.5,1.5,1,2.8,1.3,4.4c30.9-40.5,61.7-81,92.6-121.5c-7.6-0.1-15.2-0.7-22.7-1.7c8.5,1.1,17,2.3,25.5,3.4
						c-8.2-1.2-16.2-2.9-24.2-5.1c-17,61.7-34,123.4-51,185.1c16,3.6,32.4,5.5,48.7,7.6c8.4,1.1,16.9,1.8,25.3,2.1
						c17,0.7,34.1-0.1,51-1.7c42.6-4.2,84.5-12.1,126.4-20.8c19.5-4,39.1-8.5,58.9-11.2c-8.5,1.1-17,2.3-25.5,3.4c3-0.3,6-0.4,9-0.2
						c-8.5-1.1-17-2.3-25.5-3.4c5.4,0.8,10.5,2.9,15.8,4c13,2.6,27,5.1,40.4,4.3c19.1-1.3,38.3-4.4,56.6-10
						c21.6-6.6,42.4-14.2,64.9-17.4c-8.5,1.1-17,2.3-25.5,3.4c54.6-7.2,109.7,2.8,164.4-2.6c13.2,0.5,25.5-2.3,37-8.3
						c11.9-3.9,22.2-10.5,30.9-19.8c9.4-8.7,16-19,19.8-30.9c6-11.4,8.8-23.8,8.3-37c-1.1-8.5-2.3-17-3.4-25.5
						c-4.6-16.3-12.8-30.4-24.7-42.4c-6.5-5-13-10-19.4-15c-15-8.7-31.1-13.1-48.5-13.1c-34.1,3.4-68.3,0.8-102.4,0.1
						c-16.6-0.4-33.3-0.3-49.9,1.2c-24.6,2.2-49.6,5.4-73.3,12.7c-18.1,5.6-35.9,12.7-54.7,15.4c8.5-1.1,17-2.3,25.5-3.4
						c-5.6,0.7-11.2,0.9-16.9,0.3c8.5,1.1,17,2.3,25.5,3.4c-3.7-0.5-7.2-1.4-10.8-2.5c-7.2-2.1-13.8-2.8-21.5-3.8
						c-8-1.1-14.1-2.2-21.8-1.5c-11.5,1.1-23.3,2.9-34.7,4.9c-14.7,2.6-29.3,5.5-44,8.5c-29.1,6-58.3,12.3-87.8,16.3
						c8.5-1.1,17-2.3,25.5-3.4c-31.9,4.3-64.1,5.9-96.1,1.7c8.5,1.1,17,2.3,25.5,3.4c-7.5-1-14.9-2.4-22.3-4
						c-12.8-4-25.5-4.6-38.3-1.7c-12.8,0.6-24.7,4.4-35.7,11.4c-11.2,6-20.2,14.3-26.9,24.7c-8.5,9.3-14.2,20.2-17.2,32.6
						c-1.1,8.5-2.3,17-3.4,25.5c0.1,17.3,4.4,33.5,13.1,48.5c13.6,21.1,32.8,37.2,57.4,44.1c8,2.2,16,3.9,24.2,5.1
						c16,2.4,32.1,4.9,48.3,5.1c17.3-0.1,33.5-4.4,48.5-13.1c11.2-6,20.2-14.3,26.9-24.7c8.5-9.3,14.2-20.2,17.2-32.6
						c4.6-17,4.6-34,0-51c-4.9-20.6-17.1-40.6-32-55.4c-22.6,54.6-45.3,109.3-67.9,163.9c22.9,0.6,46.2-3.8,68.5-8.9
						c14.7-3.4,29.2-7.4,44.1-9.4c-8.5,1.1-17,2.3-25.5,3.4c9-1.2,18.1-1.5,27.1-0.4c-8.5-1.1-17-2.3-25.5-3.4
						c4.2,0.6,8.4,1.5,12.5,2.8c4.6,1.5,8.9,3.7,13.6,4.8c4.9,1.1,10.9,1.6,15.3,2.1c4.1,0.6,10.3,2,15.3,1.8
						c4.9-0.2,11.5-1.4,15.3-2c5.1-0.7,10.3-1.1,15.3-2.2c5.1-1.2,9.9-2.6,15.1-3.4c-8.5,1.1-17,2.3-25.5,3.4
						c10.5-1.3,21.2-1,31.7-1c11.3,0,22.6,0,33.9,0c22.3,0,44.6,0,66.8,0c13.2,0.5,25.5-2.3,37-8.3c11.9-3.9,22.2-10.5,30.9-19.8
						c9.4-8.7,16-19,19.8-30.9c6-11.4,8.8-23.8,8.3-37c-1.1-8.5-2.3-17-3.4-25.5c-4.6-16.3-12.8-30.4-24.7-42.4
						C462.5,657.9,439.4,647,413.4,647L413.4,647z"/>
				</g>
			</g>
			<g class="st2">
				<g>
					<path class="st3" d="M651.3,823c38.1-0.1,76.3-0.1,114.4-0.2c18.9,0,37.8-0.1,56.7-0.1c17,0,34.3-1,51.3,1
						c-8.5-1.1-17-2.3-25.5-3.4c6.1,0.8,12,2.2,17.7,4.6c-7.6-3.2-15.3-6.5-22.9-9.7c3.2,1.5,6.2,3.2,9.1,5.3c-6.5-5-13-10-19.4-15
						c4.6,3.7,8.3,8.3,12.7,12.2c16.6,14.8,32.6,25.1,54.3,31.4c1.3,0.4,2.7,0.7,4,0.9c9.2,1.8,19.5,3,28.8,3.9
						c2.8,0.3,5.5,0.4,8.3,0.4c6.8,0,13.6-0.4,20.4-1.1c20.9-2.1,41.7-5.3,62.3-9.3c13.5-2.6,26.9-5.3,40.5-7.2
						c-8.5,1.1-17,2.3-25.5,3.4c11.1-1.5,22.4-2.8,33.6-1.4c-8.5-1.1-17-2.3-25.5-3.4c4.2,0.7,8.1,1.8,12,3.4
						c-7.6-3.2-15.3-6.5-22.9-9.7c16,7,31.5,16,48.7,19.7c12.7,2.7,25.8,4.3,38.7,5.3c5.1,0.4,10.2,0.4,15.3,0.2
						c19.2-0.6,38.2-3.4,57.3-1c-8.5-1.1-17-2.3-25.5-3.4c6.8,1,13.3,2.6,19.6,5.2c-7.6-3.2-15.3-6.5-22.9-9.7
						c4.3,1.9,8.3,4.2,12.1,7.1c11,7,22.9,10.8,35.7,11.4c12.8,2.9,25.5,2.3,38.3-1.7c12.5-3,23.4-8.7,32.6-17.2
						c10.5-6.8,18.7-15.7,24.7-26.9c11.8-22.3,17.7-49.3,9.7-74c-3.2-7.6-6.5-15.3-9.7-22.9c-8.5-14.4-20-25.9-34.4-34.4
						c-3.6-2.7-7.3-4.9-11.4-6.7c-10.3-4.8-22.9-10.8-34.7-13.6c-12.2-2.9-24.8-4.1-37.2-5.4c-4.8-0.5-9.6-0.7-14.4-0.7
						c-20.4,0-40.8,3.7-61.2,1.2c8.5,1.1,17,2.3,25.5,3.4c-6.5-0.9-12.8-2.4-18.9-4.9c7.6,3.2,15.3,6.5,22.9,9.7
						c-8.5-3.6-16.8-7.6-25.3-11.2c-5.7-2.4-11.9-5.5-18-7.1c-10.3-2.7-21.4-3.5-31.9-4.6c-19.2-2.1-40.6,2.4-59.1,5.1
						c-23.1,3.3-45.8,9-69,12.1c8.5-1.1,17-2.3,25.5-3.4c-12.4,1.6-25.3,2.9-37.8,1.4c8.5,1.1,17,2.3,25.5,3.4
						c-3.3-0.5-6.4-1.3-9.5-2.5c7.6,3.2,15.3,6.5,22.9,9.7c-2-0.9-3.8-2-5.6-3.3c6.5,5,13,10,19.4,15c-3-2.3-5.5-5-8.2-7.7
						c-8.1-8.3-17.7-15.3-27.1-22c-6.2-4.4-12.9-6.7-19.9-9.7c-7.1-3-14-6.4-21.5-8.1c-11.3-2.6-23.2-3.7-34.7-5
						c-4.2-0.5-8.3-0.7-12.5-0.8c-8.7-0.2-17.5-0.1-26.3-0.1c-38.8,0.1-77.6,0.1-116.4,0.2c-21.9,0-43.8,0.1-65.6,0.1
						c-13.2-0.5-25.5,2.3-37,8.3c-11.9,3.9-22.2,10.5-30.9,19.8c-9.4,8.7-16,19-19.8,30.9c-6,11.4-8.8,23.8-8.3,37
						c1.1,8.5,2.3,17,3.4,25.5c4.6,16.3,12.8,30.4,24.7,42.4C602.2,812.1,625.3,823,651.3,823L651.3,823z"/>
				</g>
			</g>
			<g class="st2">
				<g>
					<path class="st3" d="M1363.3,721.8c-17-10-34-20-51.1-30c-13.8-8.1-28.7-16-44.4-19c-24.7-4.8-48.9-4.9-73,3.5
						c-33.9,11.8-66.6,27.7-102.5,32.7c8.5-1.1,17-2.3,25.5-3.4c-10.9,1.4-21.9,1.7-32.9,0.3c8.5,1.1,17,2.3,25.5,3.4
						c-10.6-1.5-20.6-4.6-30.5-8.7c7.6,3.2,15.3,6.5,22.9,9.7c-15.5-6.5-31.5-15-48.2-18.8c-16.4-3.8-33.7-6.3-50.7-5.8
						c-27.3,0.7-54.7,6.4-80.9,14.2c-18.7,5.6-37.3,11.5-56.4,16c-19.5,4.7-39.2,8.3-59.1,11c8.5-1.1,17-2.3,25.5-3.4
						c-12.3,1.6-24.6,3-36.9,1.6c8.5,1.1,17,2.3,25.5,3.4c-6-0.8-11.6-2.3-17.2-4.6c7.6,3.2,15.3,6.5,22.9,9.7
						c-22.6-9.7-43.5-24.3-68.2-28.7c-16.1-2.8-32.9-5.6-49.3-4.7c-16.9,0.9-33.9,3.5-50.5,6.8c-35.6,7.1-70,19.4-105,29
						c-20.1,5.5-40.4,10.2-61.1,13.1c8.5-1.1,17-2.3,25.5-3.4c-7.6,1-15.1,1.6-22.7,0.8c8.5,1.1,17,2.3,25.5,3.4
						c-3.7-0.5-7.2-1.4-10.7-2.8c7.6,3.2,15.3,6.5,22.9,9.7c-2-0.9-3.8-1.9-5.6-3c-11-7-22.9-10.8-35.7-11.4
						c-12.8-2.9-25.5-2.3-38.3,1.7c-12.5,3-23.4,8.7-32.6,17.2c-10.5,6.8-18.7,15.7-24.7,26.9c-11.8,22.3-17.7,49.3-9.7,74
						c3.2,7.6,6.5,15.3,9.7,22.9c8.5,14.4,20,25.9,34.4,34.4c20.6,13.3,45.5,18.3,69.6,19.3c4.4,0.2,8.7-0.1,13.1-0.6
						c12.6-1.3,25.2-3.1,37.8-5.1c19.4-3.1,38.4-7.8,57.3-13c37.6-10.5,75-24.6,113.8-30.1c-8.5,1.1-17,2.3-25.5,3.4
						c10.6-1.4,21.3-1.9,32-0.7c-8.5-1.1-17-2.3-25.5-3.4c7.6,1,14.9,2.9,22,5.9c-7.6-3.2-15.3-6.5-22.9-9.7
						c6.8,3,13.2,6.7,19.9,10.1c10.2,5.2,20.9,9.5,31.5,13.6c3.9,1.5,7.8,2.7,11.9,3.5c11.6,2.2,23.7,4,35.5,4.6c4,0.2,8,0.2,12-0.1
						c16.3-0.9,32.6-3.7,48.8-6c33.4-4.7,66-12.5,98.2-22.4c17.9-5.5,35.8-11,54.3-13.6c-8.5,1.1-17,2.3-25.5,3.4
						c10.2-1.3,20.5-1.6,30.7-0.4c-8.5-1.1-17-2.3-25.5-3.4c10.3,1.4,19.8,4.7,29.3,8.7c-7.6-3.2-15.3-6.5-22.9-9.7
						c14.5,6.2,29.2,13.6,44.6,17.8c3.9,1.1,7.9,1.9,12,2.5c11.8,1.8,23.9,3.8,35.8,4.4c7.5,0.4,15,0,22.5-0.9
						c16.1-1.8,32.4-3.8,48.1-7.7c15.9-4,31.4-9.6,46.8-15.4c8-3,15.9-6.1,23.9-9.2c7.9-3,15.7-6.2,24-7.5c-8.5,1.1-17,2.3-25.5,3.4
						c3-0.3,5.9-0.4,8.9-0.1c-8.5-1.1-17-2.3-25.5-3.4c2.8,0.5,5.3,1.2,7.9,2.2c-7.6-3.2-15.3-6.5-22.9-9.7
						c11,4.6,21.1,11.6,31.4,17.7c11.1,6.5,22.1,13,33.2,19.5c11,7,22.9,10.8,35.7,11.4c12.8,2.9,25.5,2.3,38.3-1.7
						c12.5-3,23.4-8.7,32.6-17.2c10.5-6.8,18.7-15.7,24.7-26.9c11.8-22.3,17.7-49.3,9.7-74C1399.7,755.3,1385.3,734.7,1363.3,721.8
						L1363.3,721.8z"/>
				</g>
			</g>
			<g class="st2">
				<g>
					<path class="st3" d="M396.1,875.4c0.7-1.8,1.4-3.6,2.2-5.3c-3.2,7.6-6.5,15.3-9.7,22.9c3.2-7.6,6.9-14.9,11.9-21.5
						c-5,6.5-10,13-15,19.4c2.3-2.9,4.9-5.5,7.8-7.8c-6.5,5-13,10-19.4,15c2.2-1.6,4.6-3,7.1-4.2c-7.6,3.2-15.3,6.5-22.9,9.7
						c3.8-1.5,7.6-2.3,11.6-2.9c-8.5,1.1-17,2.3-25.5,3.4c13.3-1.6,27-2.4,40-5.5c12.5-2.9,25.4-9.4,36.6-14.4
						c10-4.5,19.5-10.2,29-15.5c19.3-10.8,38.8-21.4,59.2-30c-7.6,3.2-15.3,6.5-22.9,9.7c11.2-4.7,23.1-9.8,35.1-11.8
						c-8.5,1.1-17,2.3-25.5,3.4c2-0.3,4-0.3,6-0.2c-8.5-1.1-17-2.3-25.5-3.4c1.5,0.2,2.8,0.5,4.2,1c-7.6-3.2-15.3-6.5-22.9-9.7
						c0.9,0.4,1.8,0.8,2.6,1.4c-6.5-5-13-10-19.4-15c2.6,2,4.7,4.6,7.1,6.9c7.3,7,15.5,13.5,24.5,18.2c7.7,4,20,9.9,30.2,11.6
						c10.3,1.7,21.2,3.9,31.7,3.7c14.2-0.2,28.4-3,42.3-5.3c6.9-1.1,13.7-2.5,20.6-4.1c26.4-6.1,52.2-14.5,79.1-18.1
						c-8.5,1.1-17,2.3-25.5,3.4c6.2-0.8,12.7-1.7,19-1.3c-8.5-1.1-17-2.3-25.5-3.4c1.6,0.2,3,0.5,4.5,1c-7.6-3.2-15.3-6.5-22.9-9.7
						c1,0.4,1.9,0.9,2.7,1.5c-6.5-5-13-10-19.4-15c4.9,4,8.2,9.6,13.1,13.6c7.6,6.2,16.4,13.9,25.5,19c9.4,5.2,19.7,8.9,29.6,12.8
						c5.9,2.3,12.1,3.8,18.3,4.8c14.4,2.3,29.1,4.3,43.8,5.4c39.4,2.9,79.3-1.5,117.9-9.2c12.5-3,23.4-8.7,32.6-17.2
						c10.5-6.8,18.7-15.7,24.7-26.9c7-11,10.8-22.9,11.4-35.7c2.9-12.8,2.3-25.5-1.7-38.3c-3.2-7.6-6.5-15.3-9.7-22.9
						c-8.5-14.4-20-25.9-34.4-34.4c-7.6-3.2-15.3-6.5-22.9-9.7c-17-4.6-34-4.6-51,0c-7,1.4-14,2.6-21,3.5c8.5-1.1,17-2.3,25.5-3.4
						c-28.6,3.8-58,4.5-86.6,0.7c8.5,1.1,17,2.3,25.5,3.4c-8-1.2-15.9-2.9-23.4-6.1c7.6,3.2,15.3,6.5,22.9,9.7
						c-3.6-1.6-7-3.5-10.1-5.9c6.5,5,13,10,19.4,15c-4.7-3.7-7.7-8.6-11.9-12.6c-21.8-20.7-49.7-32.4-80-32.2
						c-14.5,0.1-30.2,3.2-44,5.2c-6.9,1-13.7,2.3-20.6,3.8c-27.3,6-54,14.9-81.8,18.9c8.5-1.1,17-2.3,25.5-3.4
						c-5.9,0.8-11.7,1.4-17.6,0.7c8.5,1.1,17,2.3,25.5,3.4c-2.5-0.4-4.9-1-7.3-1.9c7.6,3.2,15.3,6.5,22.9,9.7
						c-1.4-0.7-2.6-1.4-3.9-2.2c6.5,5,13,10,19.4,15c-2.5-2.1-4.6-4.6-7-6.9c-12.7-12-30.2-23.6-47.6-27.5c-0.9-0.3-1.9-0.4-2.9-0.5
						c-8.5-1.1-17-2.3-25.5-3.4c-1.5-0.1-3-0.1-4.5,0c-10.8,0.6-22.4,2-33,5c-21.7,6-42.7,15.6-63,25c-13.4,6.2-26.5,13.1-39.4,20.3
						c-13.1,7.2-25.9,15.2-39.6,21.2c7.6-3.2,15.3-6.5,22.9-9.7c-5.6,2.3-11.3,4-17.3,5c8.5-1.1,17-2.3,25.5-3.4
						c-15.4,2-31.7,1.7-46.3,7.4c-21.1,8.3-38.6,16.4-54.5,33.5c-9.2,9.9-18.2,21.4-24.7,33.5c-6.6,12.4-11.6,25.8-16.8,38.8
						c-4,12.8-4.6,25.5-1.7,38.3c0.6,12.8,4.4,24.7,11.4,35.7c6,11.2,14.3,20.2,24.7,26.9c9.3,8.5,20.2,14.2,32.6,17.2
						c8.5,1.1,17,2.3,25.5,3.4c17.3-0.1,33.5-4.4,48.5-13.1c6.5-5,13-10,19.4-15C383.3,905.8,391.6,891.7,396.1,875.4L396.1,875.4z"
						/>
				</g>
			</g>
			<g class="st2">
				<g>
					<path class="st3" d="M582.4,668.1c-71.5,2.6-143,3.5-214.5,2.7c-35.4-0.4-70.8-1.2-106.1-2.4c-17.7-0.6-35.4-1.3-53-2.1
						c-17.4-0.8-34.8-2.3-52.2-2c-25.3,0.4-50.7,4.9-75.1,11.5c-16.7,4.5-33.4,9.6-50.6,12.1c8.5-1.1,17-2.3,25.5-3.4
						c-8.7,1.1-17.3,1.5-26,0.5c8.5,1.1,17,2.3,25.5,3.4c-6.3-0.9-12.4-2.5-18.3-4.9c7.6,3.2,15.3,6.5,22.9,9.7
						c-1.6-0.7-3.2-1.5-4.8-2.3c-15-8.7-31.1-13.1-48.5-13.1c-13.2-0.5-25.5,2.3-37,8.3c-11.9,3.9-22.2,10.5-30.9,19.8
						c-11.9,12-20.1,26.1-24.7,42.4c-1.8,9.7-3.7,20.3-4,30.2c-0.2,5.6,1.4,12.7,2,17.4c2.4,17.9,5.6,28.8,14.9,46
						c10.9,20.2,30,38.3,49.6,49.9c10.3,6.1,21.8,10.8,33.3,14c2.5,0.7,5.1,1.1,7.7,1.6c10.3,1.6,20.9,3.5,31.4,3.9
						c9,0.3,17.8-1.2,26.7-2.4c9.6-1.3,19.1-2.4,28.6-4.8c26.3-6.4,51.1-17.3,75.9-27.9c18.1-7.7,35.8-16.5,53.4-25.2
						c19.8-9.9,39.7-19.8,60.1-28.4c-7.6,3.2-15.3,6.5-22.9,9.7c19.5-8.1,39.4-15,60.1-19.4c-39.4-22.4-78.7-44.7-118.1-67.1
						c13.1,45.5,51.5,82.9,98,93.6c35.5,8.2,71.5,4.3,105.1-8.9c21-8.3,41.9-16.9,62.8-25.3c10.9-4.4,21.8-8.8,32.7-13.2
						c10.2-4.1,20.7-9.7,31.5-12.1c-8.5,1.1-17,2.3-25.5,3.4c1.2-0.2,2.4-0.3,3.5-0.2c-8.5-1.1-17-2.3-25.5-3.4
						c1.1,0.1,2.2,0.4,3.2,0.9c-7.6-3.2-15.3-6.5-22.9-9.7c1,0.4,1.9,1,2.7,1.6c-6.5-5-13-10-19.4-15c10.4,8.5,20.2,17.6,31.5,25.2
						c2.6,1.7,5.2,3.3,8,4.6c9.4,4.5,19.3,8.7,29.2,12.3c5.6,2.1,11.5,3.5,17.4,4.4c13.8,2.1,27.9,4.5,42,4.8
						c28.7,0.6,57-7.2,85.7-3.4c-8.5-1.1-17-2.3-25.5-3.4c4.1,0.6,8.1,1.5,12,3c-7.6-3.2-15.3-6.5-22.9-9.7c2.7,1.2,5.2,2.5,7.6,4.3
						c-6.5-5-13-10-19.4-15c3.1,2.5,5.7,5.4,8.1,8.5c-5-6.5-10-13-15-19.4c8.4,11,16,22.8,25.5,32.9c2.3,2.5,4.8,4.6,7.4,6.7
						c8.1,6.4,16.1,13.4,24.9,18.7c2.9,1.7,5.9,3.2,8.9,4.6c9.6,4.3,19.3,8.7,29.3,12.1c6.2,2.1,12.7,3.4,19.2,4.4
						c14.3,2.1,28.8,4.5,43.3,4.7c8,0.1,15.9-0.3,23.9-0.7c16.1-0.8,32.2-1.7,48.2,0.3c-8.5-1.1-17-2.3-25.5-3.4
						c33.3,4.6,64.2,19.1,97.4,24.1c15.8,2.4,31.9,5.1,48,5c16.3-0.1,32.6-2.9,48.7-5.1c16.2-2.2,32.1-5.9,47.9-9.9
						c18.5-4.6,36.9-9.3,55.7-12c-8.5,1.1-17,2.3-25.5,3.4c7.1-0.9,14.2-1.6,21.4-1.8c-27.6-48.2-55.3-96.3-82.9-144.5
						c-2,3.1-3.9,6.2-5.9,9.2c-7,11-10.8,22.9-11.4,35.7c-2.9,12.8-2.3,25.5,1.7,38.3c3,12.5,8.7,23.4,17.2,32.6
						c6.8,10.5,15.7,18.7,26.9,24.7c22.3,11.8,49.3,17.7,74,9.7c7.6-3.2,15.3-6.5,22.9-9.7c14.4-8.5,25.9-20,34.4-34.4
						c2-3.1,3.9-6.2,5.9-9.2c18.3-28.6,16.8-68.2,0-96.9c-16.6-28.4-49.4-48.7-82.9-47.5c-18.6,0.6-37.3,3.5-55.6,6.6
						c-10.7,1.8-21.2,4.2-31.7,6.8c-21,5.1-41.8,10.8-63.2,13.7c8.5-1.1,17-2.3,25.5-3.4c-14.9,1.9-29.8,2.3-44.6,0.3
						c8.5,1.1,17,2.3,25.5,3.4c-31.3-4.6-60.4-17.8-91.5-23.2c-24.8-4.3-48.1-6.4-73-5.2c-16.1,0.8-32.3,1.9-48.4-0.1
						c8.5,1.1,17,2.3,25.5,3.4c-9.1-1.2-17.9-3.4-26.4-6.9c7.6,3.2,15.3,6.5,22.9,9.7c-5.1-2.3-9.9-5-14.5-8.3c6.5,5,13,10,19.4,15
						c-4.5-3.5-8.3-7.5-11.8-12c5,6.5,10,13,15,19.4c-16-21.3-30.8-44.1-56.3-55.5c-9.3-4.2-18.9-9.1-28.8-11.5
						c-10.6-2.6-22-3.4-32.5-4.7c-6.9-0.8-13.9-1.1-20.9-1c-26,0.7-51.8,6.6-77.8,3.5c8.5,1.1,17,2.3,25.5,3.4c-8-1.1-15.7-3-23.2-6
						c7.6,3.2,15.3,6.5,22.9,9.7c-5.2-2.3-10-5-14.5-8.5c6.5,5,13,10,19.4,15c-2.6-2.1-4.9-4.4-7.4-6.7
						c-14.8-13.3-28.4-22.5-47.8-27.9c-23.2-6.4-47.4-4.4-69.4,4.5c-16.7,6.7-33.4,13.4-50,20.2c-16.3,6.6-32.7,13.2-49,19.7
						c-15.5,6.2-31,13.1-47.7,15.6c8.5-1.1,17-2.3,25.5-3.4c-5.5,0.7-11.1,0.8-16.6,0.2c8.5,1.1,17,2.3,25.5,3.4
						c-4.7-0.7-9.2-2-13.5-3.8c7.6,3.2,15.3,6.5,22.9,9.7c-3.3-1.5-6.4-3.3-9.3-5.4c6.5,5,13,10,19.4,15c-2.8-2.2-5.3-4.6-7.5-7.4
						c5,6.5,10,13,15,19.4c-1.5-2.1-2.7-4.2-3.7-6.5c3.2,7.6,6.5,15.3,9.7,22.9c-0.6-1.4-1.1-2.8-1.5-4.3
						c-3-12.5-8.7-23.4-17.2-32.6c-6.8-10.5-15.7-18.7-26.9-24.7c-7.6-3.2-15.3-6.5-22.9-9.7c-17-4.6-34-4.6-51,0
						c-38.7,8.2-75.6,24.8-111.1,41.7c-29.1,13.9-57.4,29.1-87.1,41.7c7.6-3.2,15.3-6.5,22.9-9.7c-21.4,9-43.9,17.3-67,20.5
						c8.5-1.1,17-2.3,25.5-3.4c-6.6,0.8-13.2,1-19.8,0.2c8.5,1.1,17,2.3,25.5,3.4c-4.5-0.7-8.8-1.7-13-3.3
						c7.6,3.2,15.3,6.5,22.9,9.7c-3.5-1.5-6.7-3.4-9.8-5.8c6.5,5,13,10,19.4,15c-2.5-2.1-4.8-4.3-6.9-6.9c5,6.5,10,13,15,19.4
						c-1.9-2.6-3.6-5.2-4.9-8.2c3.2,7.6,6.5,15.3,9.7,22.9c-1-2.5-1.7-4.9-2.1-7.5c1.1,8.5,2.3,17,3.4,25.5c-0.3-2.6-0.3-5.2,0-7.8
						c-1.1,8.5-2.3,17-3.4,25.5c0.1-0.5,0.2-1,0.3-1.6c-47,19.1-94,38.2-141,57.4c9.4,4.9,19.5,8.9,29.4,12.7
						c2.4,0.9,4.9,1.8,7.4,2.5c2.8,0.7,5.6,1.3,8.4,1.7c10.4,1.6,21,3.4,31.5,4c5.8,0.4,11.6,0.1,17.4-0.5
						c13.6-1.5,27.2-3.1,40.6-5.9c23.5-4.9,46.1-13.4,69.9-16.8c-8.5,1.1-17,2.3-25.5,3.4c28-3.7,57.1,0.1,85.2,1.3
						c29.1,1.3,58.2,2.2,87.3,2.9c57.9,1.4,115.7,1.7,173.6,0.8c32.8-0.5,65.6-1.3,98.4-2.5c25.2-0.9,49.9-10.1,67.9-28.1
						c9.4-8.7,16-19,19.8-30.9c6-11.4,8.8-23.8,8.3-37c-1.1-24.8-9.3-50.6-28.1-67.9C631.9,679.4,608,667.2,582.4,668.1L582.4,668.1
						z"/>
				</g>
			</g>
			<g class="st2">
				<g>
					<path class="st3" d="M992.6,896.9c109.6,5.6,219.7,2.1,328.8-10.7c38.7-4.6,77.3-9.9,115.8-16.2c-17-61.7-34-123.4-51-185.1
						c-49.1,15-99,27.6-149.9,34.6c8.5-1.1,17-2.3,25.5-3.4c-45,6-90.6,7.6-135.7,1.6c8.5,1.1,17,2.3,25.5,3.4
						c-32-4.4-63.3-12.6-93-25.2c7.6,3.2,15.3,6.5,22.9,9.7c-17.8-7.6-35.1-16.4-52.7-24.6c-24.2-11.2-49.2-22.7-75.1-29.3
						c-17.4-4.5-35.6-6.5-53.4-8.4c-10.1-1.1-20.3-1.4-30.4-1.2c-27.9,0.7-56.1,4.8-83.3,10.7c-19.1,4.1-37.7,10.7-57.1,13.5
						c8.5-1.1,17-2.3,25.5-3.4c-7.6,1-15.1,1.3-22.8,0.4c8.5,1.1,17,2.3,25.5,3.4c-4.2-0.6-8.3-1.6-12.3-3.2
						c7.6,3.2,15.3,6.5,22.9,9.7c-3-1.3-5.8-2.9-8.5-4.8c6.5,5,13,10,19.4,15c-2.8-2.2-5.1-4.6-7.3-7.4c5,6.5,10,13,15,19.4
						c-8.8-12.3-15.7-25.1-26.7-36.2c-0.8-0.8-1.6-1.5-2.5-2.2c-6.5-5-13-10-19.4-15c-5-3.4-9.6-4.8-15.7-7.4
						c-17.1-7.2-23.6-9-44.6-10.3c-11.2-0.7-22.8,1.8-33.7,3.6c-4,0.7-7.9,1.7-11.7,3c-14.4,5.2-28.4,11.6-42,18.6
						c-32.1,16.5-64.8,32-98,46.2c7.6-3.2,15.3-6.5,22.9-9.7c-10.3,4.3-20.7,8.1-31.8,9.8c8.5-1.1,17-2.3,25.5-3.4
						c-6.6,0.8-13,0.8-19.6,0c8.5,1.1,17,2.3,25.5,3.4c-14.5-2-28.4-7-42.7-9.9c-22.4-4.5-45.9-7.4-68.7-5.7
						c-39.1,2.9-76.1,11.8-113.3,23.1c-23.5,7.2-44.8,22.7-57.4,44.1c-7,11-10.8,22.9-11.4,35.7c-2.9,12.8-2.3,25.5,1.7,38.3
						c7.5,23.2,21.9,45.6,44.1,57.4c22.5,11.9,49,17.3,74,9.7c24.8-7.6,49.7-14.9,75.4-18.4c-8.5,1.1-17,2.3-25.5,3.4
						c15.8-2,31.6-2.4,47.4-0.4c-8.5-1.1-17-2.3-25.5-3.4c10,1.5,19.8,4.1,29.6,6.7c16.6,4.4,33.7,7,50.8,8.4
						c4.6,0.4,9.2,0.2,13.8-0.2c12.7-1.2,26.3-2.6,38.9-6.1c16.1-4.5,31.8-12.1,46.9-18.6c18.7-8.1,37.2-16.5,55.6-25.4
						c17.7-8.5,35-18.3,52.9-26.2c-7.6,3.2-15.3,6.5-22.9,9.7c5.4-2.3,10.9-4.1,16.7-5c-8.5,1.1-17,2.3-25.5,3.4
						c2.7-0.3,5.4-0.4,8.1-0.2c-8.5-1.1-17-2.3-25.5-3.4c2.7,0.4,5.1,1,7.6,2.1c-7.6-3.2-15.3-6.5-22.9-9.7c1.5,0.8,2.8,1.6,4.2,2.5
						c-6.5-5-13-10-19.4-15c1.8,1.5,3.3,3,4.7,4.8c-5-6.5-10-13-15-19.4c2.2,3,4.1,6.1,6.1,9.2c6,9.5,12.9,18.5,20.4,26.9
						c8.8,9.9,20,18.4,31.9,24.2c24.4,11.8,35.8,14.1,62.8,16.9c6.3,0.7,12.6,0.5,18.9-0.1c21.8-2.4,42-5.8,62.9-11.6
						c16.5-4.5,33.2-8.1,50.1-10.5c-8.5,1.1-17,2.3-25.5,3.4c22.3-2.9,44.7-3.5,67-0.5c-8.5-1.1-17-2.3-25.5-3.4
						c20.4,2.9,39.9,9.1,58.8,17.1c-7.6-3.2-15.3-6.5-22.9-9.7c35.4,15.1,69.2,33.3,105.4,46.8c35.5,13.2,72.3,19,109.7,23.5
						c30.2,3.6,60.7,3.9,90.9,1.7c38-2.7,76-8.2,113.2-15.8c34.2-7,67.9-16,101.2-26.3c23.5-7.2,44.8-22.7,57.4-44.1
						c7-11,10.8-22.9,11.4-35.7c2.9-12.8,2.3-25.5-1.7-38.3c-7.5-23.2-21.9-45.6-44.1-57.4c-7.6-3.2-15.3-6.5-22.9-9.7
						c-17-4.6-34-4.6-51,0c-19.8,3.3-39.6,6.2-59.4,8.9c8.5-1.1,17-2.3,25.5-3.4c-92.9,12.4-186.6,18.2-280.3,17.1
						c-26.5-0.3-52.9-1.1-79.3-2.5c-13.2-0.5-25.5,2.3-37,8.3c-11.9,3.9-22.2,10.5-30.9,19.8c-9.4,8.7-16,19-19.8,30.9
						c-6,11.4-8.8,23.8-8.3,37c1.1,24.8,9.3,50.6,28.1,67.9c6.5,5,13,10,19.4,15C959.2,892.5,975.3,896.9,992.6,896.9L992.6,896.9z"
						/>
				</g>
			</g>
			<g class="st2">
				<g>
					<path class="st3" d="M56.1,902.4c34.4-5.8,67.4-17.8,102-22.5c-8.5,1.1-17,2.3-25.5,3.4c14.4-1.8,29-2.1,43.4-0.3
						c-8.5-1.1-17-2.3-25.5-3.4c10.1,1.4,20,3.9,29.5,7.8c-7.6-3.2-15.3-6.5-22.9-9.7c7,3,13.5,6.7,19.6,11.2c-6.5-5-13-10-19.4-15
						c3.4,2.7,6.5,5.6,9.8,8.5c6.2,5.3,14.3,11.9,21.2,16.4c0.8,0.5,1.7,1,2.5,1.5c7.6,3.2,15.3,6.5,22.9,9.7
						c0.5,0.2,0.9,0.4,1.4,0.6c0.5,0.1,1,0.3,1.4,0.4c8.5,1.1,17,2.3,25.5,3.4c1.4,0.1,2.7,0.2,4.1,0.1c7.1-0.5,20.3-2,27.2-3.7
						c2.2-0.5,4.4-1.3,6.6-2.1c5.5-2,11.1-4.1,16.6-6.1c10.5-3.9,20.9-7.7,31.4-11.6c10.3-3.8,20.8-8.7,31.8-10.6
						c-8.5,1.1-17,2.3-25.5,3.4c2.5-0.3,4.8-0.3,7.2-0.1c-8.5-1.1-17-2.3-25.5-3.4c2.3,0.4,4.4,1,6.6,1.8
						c-7.6-3.2-15.3-6.5-22.9-9.7c4.1,1.9,7.9,4.3,11.9,6.4c10.8,5.5,22.1,10.6,33.9,14c15.6,4.4,32.5,6.4,48.8,6.1
						c26.1-0.4,52.3-6.2,77.9-11.3c19.9-3.9,39.8-7.8,59.8-11.7c19.1-3.8,38.3-8.2,57.6-11c-8.5,1.1-17,2.3-25.5,3.4
						c7.5-1,15-1.4,22.6-0.5c-8.5-1.1-17-2.3-25.5-3.4c4.2,0.6,8.1,1.7,12.1,3.3c-7.6-3.2-15.3-6.5-22.9-9.7c3,1.3,5.7,2.9,8.3,4.9
						c-6.5-5-13-10-19.4-15c6.3,5,11.3,11.3,17.3,16.7c10.8,9.8,22.6,19.4,35.5,26.4c12.9,6.9,26.8,12.9,41,16.9
						c14.5,4.2,30.3,5.5,45,7.2c14.7,1.7,29.6,1.2,44.4-0.1c24.3-2.2,48.3-6.1,72.4-9.5c21.4-3.1,42.8-6.3,64.2-9.1
						c-8.5,1.1-17,2.3-25.5,3.4c8-1,16-1.6,24.1-0.6c-8.5-1.1-17-2.3-25.5-3.4c7.1,1.2,13.9,3.6,20.8,5.5c10.8,3,21.7,4.3,32.7,5.8
						c18.6,2.5,36.5,3.9,55.2,2.1c37.9-3.7,73.8-11.7,110.2-22.2c12.5-3,23.4-8.7,32.6-17.2c10.5-6.8,18.7-15.7,24.7-26.9
						c7-11,10.8-22.9,11.4-35.7c2.9-12.8,2.3-25.5-1.7-38.3c-3.2-7.6-6.5-15.3-9.7-22.9c-8.5-14.4-20-25.9-34.4-34.4
						c-22.7-12-48.8-17-74-9.7c-24.8,7.2-49.8,14.2-75.4,17.7c8.5-1.1,17-2.3,25.5-3.4c-17.2,2.3-34.5,2.9-51.8,0.7
						c8.5,1.1,17,2.3,25.5,3.4c-13.1-1.8-25.2-6.6-38.1-9.2c-11-2.1-22.5-3.9-33.7-4.4c-3.1-0.2-6.2-0.1-9.3,0.1
						c-14.8,1-29.5,3.6-44.2,5.7c-27.3,3.9-54.5,8-81.8,11.6c8.5-1.1,17-2.3,25.5-3.4c-22.3,2.9-44.9,4.9-67.2,2
						c8.5,1.1,17,2.3,25.5,3.4c-9.7-1.4-19.1-3.7-28.1-7.5c7.6,3.2,15.3,6.5,22.9,9.7c-6.2-2.7-12-6.1-17.5-10.2
						c6.5,5,13,10,19.4,15c-5.5-4.3-10.1-9.4-15-14.3c-2.3-2.4-4.8-4.6-7.4-6.7c-8.5-6.8-17-14.8-27-19.6c-8.5-4-17.6-8.1-26.6-11.1
						c-1.5-0.5-3-0.9-4.5-1.3c-1.5-0.4-3.1-0.6-4.6-0.8c-9.7-1.5-19.6-3.1-29.5-3.8c-14.9-1-30.6,2.3-45,4.4
						c-15.8,2.3-31.4,5.9-47,8.9c-16.7,3.3-33.3,6.5-50,9.8c-18.2,3.6-36.4,7.7-54.7,10.3c8.5-1.1,17-2.3,25.5-3.4
						c-10.2,1.3-20.4,1.9-30.7,0.7c8.5,1.1,17,2.3,25.5,3.4c-5.6-0.8-10.9-2.1-16.1-4.2c7.6,3.2,15.3,6.5,22.9,9.7
						c-4.4-1.9-8.5-4.4-12.7-6.7c-1.2-0.7-2.5-1.3-3.8-1.8c-7.6-3.6-16.5-7.7-24.5-10.3c-1.1-0.4-2.1-0.7-3.2-0.9
						c-4.8-0.8-9.7-1.5-14.6-2c-4.5-0.8-9.1-1.4-13.7-1.8c-19.7-1.1-37.4,4.5-55.3,11.1c-10.5,3.9-20.9,7.7-31.4,11.6
						c-10.5,3.9-21.3,9.1-32.3,11.5c8.5-1.1,17-2.3,25.5-3.4c-1.8,0.2-3.2,0.2-4.9,0c8.5,1.1,17,2.3,25.5,3.4
						c-1-0.2-1.9-0.5-2.8-0.9c7.6,3.2,15.3,6.5,22.9,9.7c-1.3-0.7-2.5-1.5-3.7-2.4c6.5,5,13,10,19.4,15
						c-10.9-9.2-21.6-18.5-33.5-26.6c-8.5-5.8-17.9-9.4-27.4-13.4c-9.6-4-18.7-8.1-28.8-10.4c-14.3-3.3-29.2-5-43.8-6.3
						c-21.4-1.9-42.5,1.5-63.7,4.5c-16,2.2-31.7,6-47.4,10c-17.8,4.6-35.6,9.3-53.7,12.4c-12.5,3-23.4,8.7-32.6,17.2
						c-10.5,6.8-18.7,15.7-24.7,26.9c-7,11-10.8,22.9-11.4,35.7c-2.9,12.8-2.3,25.5,1.7,38.3c3.2,7.6,6.5,15.3,9.7,22.9
						c8.5,14.4,20,25.9,34.4,34.4c7.6,3.2,15.3,6.5,22.9,9.7C22.1,907,39.1,907,56.1,902.4L56.1,902.4z"/>
				</g>
			</g>
			<g class="st2">
				<g>
					<path class="st3" d="M1341.6,709.7c-36.5,0.2-72.9,0.3-109.4,0.5c-17.9,0.1-35.8,0.2-53.7,0.2c-9.3,0-18.6,0.1-27.9,0.1
						c-8.1,0-16.3,0.4-24.3-0.5c8.5,1.1,17,2.3,25.5,3.4c-3-0.4-5.9-1.1-8.8-2.2c7.6,3.2,15.3,6.5,22.9,9.7c-1.9-0.8-3.5-1.8-5.2-3
						c6.5,5,13,10,19.4,15c-3.7-3-6.5-7-9.9-10.3c-6.1-5.8-14.2-11.7-21.1-16.5c-1.1-0.8-2.1-1.5-3.3-2.1c-9-4.7-18.5-9.2-28.3-11.7
						c-18.1-4.6-38.4-5.7-57.3-5c-30.6,1.1-61.1,6.5-91.4,10.5c8.5-1.1,17-2.3,25.5-3.4c-26.2,3.5-52.8,6.5-79.1,3
						c8.5,1.1,17,2.3,25.5,3.4c-11.3-1.6-22.2-4.4-32.8-8.7c7.6,3.2,15.3,6.5,22.9,9.7c-9.9-4.2-19.2-9.6-28.7-14.8
						c-16.1-8.8-33.1-16.8-50.6-22.1c-12.6-3.8-27.4-5-39.8-6.4c-6.2-0.7-12.3-1-18.5-0.8c-19.8,0.6-39.5,3.9-59,7
						c-46.6,7.3-92,20.8-137.7,32.2c-26.2,6.5-52.5,12.5-79.3,16.1c8.5-1.1,17-2.3,25.5-3.4c-14,1.8-28.1,2.7-42.2,0.9
						c8.5,1.1,17,2.3,25.5,3.4c-9-1.3-17.4-3.8-25.8-7.3c7.6,3.2,15.3,6.5,22.9,9.7c-17.3-7.4-34.1-16.3-52.1-21.9
						c-13.2-4.2-27.6-5.3-41.2-6.6c-5.6-0.5-11.3-0.4-16.9,0.1c-19.6,2-38.8,4.5-57.3,11.1c-18.5,6.6-36.6,14.8-54.4,23.1
						c-11.2,6-20.2,14.3-26.9,24.7c-8.5,9.3-14.2,20.2-17.2,32.6c-4,12.8-4.6,25.5-1.7,38.3c0.6,12.8,4.4,24.7,11.4,35.7
						c13.2,20.5,32.9,38.5,57.4,44.1c8.5,1.1,17,2.3,25.5,3.4c17.3-0.1,33.5-4.4,48.5-13.1c6.1-2.9,12.3-5.7,18.5-8.3
						c-7.6,3.2-15.3,6.5-22.9,9.7c13.6-5.7,27.5-10.5,42.1-12.5c-8.5,1.1-17,2.3-25.5,3.4c7.7-0.9,15.4-1,23.1,0
						c-8.5-1.1-17-2.3-25.5-3.4c7.7,1.2,14.9,3.5,22,6.5c-7.6-3.2-15.3-6.5-22.9-9.7c16.5,7,32.7,15.1,49.6,21.2
						c4.8,1.7,9.8,3,14.8,3.9c12.9,2.2,26,4.3,39.1,4.9c10.8,0.5,21.5-0.5,32.2-1.8c18.4-2.4,36.8-4.8,55.1-8.3
						c42.6-8.2,84.3-20.6,126.5-30.8c23.8-5.8,47.8-10.9,72.1-14.2c-8.5,1.1-17,2.3-25.5,3.4c13.6-1.8,27.2-2.7,40.8-1.1
						c-8.5-1.1-17-2.3-25.5-3.4c8.3,1.1,16.1,3.3,23.8,6.4c-7.6-3.2-15.3-6.5-22.9-9.7c14.6,6.2,27.8,15.1,42.2,21.7
						c14.1,6.5,28.7,13.2,43.8,17.2c15,4,30.9,5.5,46.3,7.2c39.7,4.4,80.7-4.3,119.8-9.6c-8.5,1.1-17,2.3-25.5,3.4
						c24.1-3.2,49-6.5,73.4-3.8c-8.5-1.1-17-2.3-25.5-3.4c2.8,0.4,5.4,1,8.1,1.9c-7.6-3.2-15.3-6.5-22.9-9.7c2,0.9,3.8,1.9,5.6,3.2
						c-6.5-5-13-10-19.4-15c2.5,2.1,4.6,4.6,6.8,7c1,1.1,2,2.2,3.1,3.3c0.6,0.5,1.1,1,1.7,1.5c6.1,5.1,13.9,11.7,20.7,15.9
						c1.3,0.8,2.6,1.5,4,2.1c8.4,3.9,17.5,8.4,26.5,10.9c1.5,0.4,3,0.7,4.5,0.9c9.7,1.6,19.6,3.1,29.4,3.8
						c16.2,1.2,32.8,0.1,49.1,0.1c34.8-0.2,69.6-0.3,104.4-0.5c19.6-0.1,39.1-0.2,58.7-0.3c13.2,0.5,25.5-2.3,37-8.3
						c11.9-3.9,22.2-10.5,30.9-19.8c9.4-8.7,16-19,19.8-30.9c6-11.4,8.8-23.8,8.3-37c-1.1-8.5-2.3-17-3.4-25.5
						c-4.6-16.3-12.8-30.4-24.7-42.4C1390.7,720.6,1367.5,709.6,1341.6,709.7L1341.6,709.7z"/>
				</g>
			</g>
			<g class="st2">
				<g>
					<path class="st4" d="M181.1,882.5c1-4.1,2.2-8,3.8-11.8c-3.2,7.6-6.5,15.3-9.7,22.9c2.5-5.7,5.6-11.1,9.4-16.1
						c-5,6.5-10,13-15,19.4c3.9-4.9,8.2-9.3,13.2-13.1c-6.5,5-13,10-19.4,15c3.1-2.3,6.3-4.4,9.9-5.9c-7.6,3.2-15.3,6.5-22.9,9.7
						c1.7-0.6,3.2-0.9,4.9-1.2c-8.5,1.1-17,2.3-25.5,3.4c1.6-0.1,3.1-0.1,4.7,0.1c-8.5-1.1-17-2.3-25.5-3.4c1.6,0.3,3,0.7,4.5,1.3
						c-7.6-3.2-15.3-6.5-22.9-9.7c2.5,1.1,4.7,2.4,6.9,4c-6.5-5-13-10-19.4-15c5.5,4.4,9.6,10.1,14.2,15.4c2.4,2.8,4.9,5.3,7.7,7.6
						c7.9,6.6,16.3,14.1,25.6,18.9c11.6,6,24.8,12.2,38,14.3c14.3,2.3,28.3,5,42.7,3.4c13.9-1.5,29-3,42.8-7
						c6.3-1.9,12.4-4.3,18.5-6.8c13.6-5.5,27.2-11.4,41.8-13.6c-8.5,1.1-17,2.3-25.5,3.4c5.8-0.8,11.5-0.9,17.3-0.3
						c-8.5-1.1-17-2.3-25.5-3.4c2.3,0.4,4.5,0.9,6.7,1.7c-7.6-3.2-15.3-6.5-22.9-9.7c2,0.9,3.8,1.9,5.6,3.2c-6.5-5-13-10-19.4-15
						c10.8,8.9,20,18.5,32.4,26.1c11.5,7,25.4,12.8,38.9,15.1c13.8,2.3,28.1,4.9,42.2,3.7c14.9-1.2,29.8-3.3,44.4-6.3
						c28.2-5.8,55.1-16.8,83.7-20.6c-8.5,1.1-17,2.3-25.5,3.4c3.1-0.4,6.2-0.8,9.3-0.4c-8.5-1.1-17-2.3-25.5-3.4
						c0.4,0.1,0.9,0.2,1.3,0.3c-7.6-3.2-15.3-6.5-22.9-9.7c0.9,0.3,1.7,0.7,2.4,1.4c-6.5-5-13-10-19.4-15c0.3,0.4,0.6,0.7,1,1.1
						c-5-6.5-10-13-15-19.4c5.8,8.8,9.9,16.8,18.5,24.9c0.4,0.5,0.9,0.9,1.4,1.3c6.5,5,13,10,19.4,15c8,4.5,16.3,8.2,25.2,10.9
						c1.3,0.4,2.5,0.8,3.9,1c8.7,1.8,18.8,2.9,27.6,3.7c3,0.2,6.1,0.1,9.1,0c21.5-0.9,43.7-3.8,64.3-10.4
						c23.6-7.5,44.7-22.4,57.4-44.1c7-11,10.8-22.9,11.4-35.7c2.9-12.8,2.3-25.5-1.7-38.3c-3.2-7.6-6.5-15.3-9.7-22.9
						c-8.5-14.4-20-25.9-34.4-34.4c-22.3-11.8-49.2-17.6-74-9.7c-8.4,2.7-16.9,4.6-25.7,5.9c8.5-1.1,17-2.3,25.5-3.4
						c-7.9,1-16.3,1.9-24.3,0.9c8.5,1.1,17,2.3,25.5,3.4c-1.4-0.3-2.6-0.6-3.9-1c7.6,3.2,15.3,6.5,22.9,9.7
						c-0.8-0.3-1.6-0.7-2.3-1.2c6.5,5,13,10,19.4,15c-0.7-0.5-1.3-1.1-1.9-1.8c5,6.5,10,13,15,19.4c-3.6-5.2-6.3-9.1-10.5-14.7
						c-2.5-3.8-5.4-7.4-8.5-10.8c-6.5-5-13-10-19.4-15c-0.8-0.5-1.5-0.9-2.4-1.4c-18.3-10-20.2-9.5-37-11.7
						c-3.3-0.4-10.7-1.9-15.6-1.9c-6.2,0-13.5,1.6-19.2,2.3c-15.2,2-29.9,4.4-44.7,8.4c-21.6,5.8-42.9,13.1-65.2,16.2
						c8.5-1.1,17-2.3,25.5-3.4c-7.4,0.9-14.8,1.2-22.2,0.3c8.5,1.1,17,2.3,25.5,3.4c-4.1-0.6-8.1-1.7-11.9-3.3
						c7.6,3.2,15.3,6.5,22.9,9.7c-2.4-1.1-4.5-2.4-6.7-3.9c6.5,5,13,10,19.4,15c-2.1-1.6-3.9-3.4-5.8-5.2
						c-7.3-7.1-15.7-13.5-24-19.2c-18.8-13-38.8-15.7-60.8-18c-5.5-0.6-10.9-0.5-16.5,0.1c-13.6,1.6-27.6,2.8-40.8,6.8
						c-21.1,6.4-40.4,17.7-62.4,20.6c8.5-1.1,17-2.3,25.5-3.4c-6,0.7-11.9,0.8-17.9,0.1c8.5,1.1,17,2.3,25.5,3.4
						c-4.3-0.6-8.5-1.7-12.5-3.4c7.6,3.2,15.3,6.5,22.9,9.7c-3.1-1.4-6-3.1-8.7-5.1c6.5,5,13,10,19.4,15c-4.4-3.6-8-7.9-11.5-12.2
						c-8.5-10.3-18.8-18.1-29.8-25.8c-2.2-1.6-4.4-2.9-6.9-4c-7.8-3.6-16.9-8.1-25.2-10.4c-8.5-2.4-26.1-3.8-27.8-4
						c-1.3-0.1-2.6-0.2-3.9-0.2c-4.5,0.3-9.1,0.8-13.5,1.8c-4.8,0.6-9.6,1.2-14.4,2c-5.2,1.3-9.6,3.6-14.7,5.8
						c-4.1,1.7-10,3.9-14.5,6.3c-2.4,1.3-4.7,2.9-6.9,4.5c-8.2,6-16.7,12.1-24.2,19c-9.2,8.4-16.6,19.3-23.9,29.2
						c-3.1,4.2-5.8,8.6-8,13.3C5,806.4-1,818.7-4,831.5c-5.9,24.8-3.4,51.7,9.7,74c6,11.2,14.3,20.2,24.7,26.9
						c9.3,8.5,20.2,14.2,32.6,17.2c8.5,1.1,17,2.3,25.5,3.4c17.3-0.1,33.5-4.4,48.5-13.1C157.6,926.6,175.3,907,181.1,882.5
						L181.1,882.5z"/>
				</g>
			</g>
			<g class="st2">
				<g>
					<path class="st4" d="M672.8,741.1c-8.8-9.8-20.2-17.7-30.8-25.1c-10.8-7.5-24.6-12.2-36.2-17c-17.9-7.3-37.2-9-56.3-11.2
						c-27.5-3.2-55.3,1.2-82.8-2.3c8.5,1.1,17,2.3,25.5,3.4c-13.1-1.9-25.8-5.3-38-10.4c7.6,3.2,15.3,6.5,22.9,9.7
						c-8-3.4-15.5-7.9-23.4-11.7c-21.7-10.3-45.3-20-70.1-17.5c-12.1,1.2-24.2,1.9-35.6,6.2c-10.4,3.9-22.4,8.7-32.6,14.5
						c-7.2,4.2-14.1,9-21.8,12.4c7.6-3.2,15.3-6.5,22.9-9.7c-3.8,1.5-7.6,2.7-11.7,3.4c8.5-1.1,17-2.3,25.5-3.4
						c-2.9,0.4-5.7,0.5-8.7,0.2c8.5,1.1,17,2.3,25.5,3.4c-2.4-0.4-4.5-0.9-6.7-1.9c7.6,3.2,15.3,6.5,22.9,9.7
						c-1.3-0.7-2.5-1.3-3.7-2.2c6.5,5,13,10,19.4,15c-0.4-0.3-0.8-0.6-1.1-0.9c-8.7-9.4-19-16-30.9-19.8c-11.4-6-23.8-8.8-37-8.3
						c-13.2-0.5-25.5,2.3-37,8.3c-11.9,3.9-22.2,10.5-30.9,19.8c-16.8,18.3-29.3,42.3-28.1,67.9c1.1,8.5,2.3,17,3.4,25.5
						c4.6,16.3,12.8,30.4,24.7,42.4c21.1,16.8,22.4,18.5,47.8,28c10,3.7,23,4.4,32.3,5.1c10.5,0.7,25.8-2.3,33.5-3.7
						c3-0.6,5.9-1.2,8.8-2.3c13.2-4.7,26.3-10.1,38.2-17.5c6.2-3.8,12.3-7.7,19-10.5c-7.6,3.2-15.3,6.5-22.9,9.7
						c3-1.2,6.1-2.1,9.3-2.7c-8.5,1.1-17,2.3-25.5,3.4c2.7-0.4,5.4-0.4,8.1-0.2c-8.5-1.1-17-2.3-25.5-3.4c3.9,0.5,7.5,1.6,11.2,3.1
						c-7.6-3.2-15.3-6.5-22.9-9.7c5.7,2.5,11.1,5.7,16.7,8.5c12.4,6.3,25.5,11.7,38.5,16.5c19.7,7.3,40.5,9.6,61.2,12
						c27.1,3.1,54.5-1.3,81.6,2.2c-8.5-1.1-17-2.3-25.5-3.4c9.8,1.4,19.3,3.7,28.4,7.5c-7.6-3.2-15.3-6.5-22.9-9.7
						c5.6,2.5,10.9,5.4,15.8,9.1c-6.5-5-13-10-19.4-15c3.2,2.5,6.2,5.3,8.9,8.3c8.7,9.4,19,16,30.9,19.8c11.4,6,23.8,8.8,37,8.3
						c13.2,0.5,25.5-2.3,37-8.3c11.9-3.9,22.2-10.5,30.9-19.8c16.8-18.3,29.3-42.3,28.1-67.9c-1.1-8.5-2.3-17-3.4-25.5
						C693,767.2,684.7,753,672.8,741.1L672.8,741.1z"/>
				</g>
			</g>
			<g class="st2">
				<g>
					<path class="st4" d="M625.7,926.5c34-0.4,67.9-0.7,101.9-1.1c16.7-0.2,33.3-0.4,50-0.5c16.2-0.2,33-1.5,49.1,0.5
						c-8.5-1.1-17-2.3-25.5-3.4c4.6,0.7,9.1,1.8,13.5,3.5c-7.6-3.2-15.3-6.5-22.9-9.7c6.5,2.9,12.3,7,18.2,11
						c2.8,1.9,5.7,3.8,8.7,5.4c10,5.4,20.8,9.7,31.5,13.4c3.2,1.1,6.5,1.9,9.8,2.5c11.4,2.1,23.1,3.8,34.8,4.5
						c7.2,0.5,14.4,0,21.5-0.8c23.6-2.8,46.3-6.7,69.2-12.7c15.2-4,30.3-8.5,45.5-12.6c17.3-4.7,34.7-8.9,52.4-11.4
						c-8.5,1.1-17,2.3-25.5,3.4c9.9-1.3,19.8-1.7,29.7-0.5c-8.5-1.1-17-2.3-25.5-3.4c7.7,1.2,15,3.5,22.2,6.5
						c-7.6-3.2-15.3-6.5-22.9-9.7c21.8,9.4,43,20,65.8,26.7c14.5,4.2,29.3,7.7,43.3,13.6c-7.6-3.2-15.3-6.5-22.9-9.7
						c7.2,3.1,14,6.9,20.3,11.6c-6.5-5-13-10-19.4-15c0.4,0.3,0.8,0.7,1.2,1c8.7,9.4,19,16,30.9,19.8c11.4,6,23.8,8.8,37,8.3
						c13.2,0.5,25.5-2.3,37-8.3c11.9-3.9,22.2-10.5,30.9-19.8c16.8-18.3,29.3-42.3,28.1-67.9c-1.1-8.5-2.3-17-3.4-25.5
						c-4.6-16.3-12.8-30.4-24.7-42.4c-12.2-9.7-23.9-19.8-38.1-26.4c-14.4-6.6-29.2-12.9-44.4-17.5c-15.6-4.7-31.6-8.3-46.7-14.6
						c7.6,3.2,15.3,6.5,22.9,9.7c-15.7-6.7-31.1-14.1-47-20.4c-15.8-6.3-33.3-8-50-9.2c-17-1.2-35,2.3-51.5,4.7
						c-9.3,1.4-18.5,3.2-27.7,5.3c-36.9,8.5-72.8,22.2-110.4,27.5c8.5-1.1,17-2.3,25.5-3.4c-9.7,1.3-19.4,1.7-29.1,0.5
						c8.5,1.1,17,2.3,25.5,3.4c-5.6-0.8-11-2.2-16.2-4.3c7.6,3.2,15.3,6.5,22.9,9.7c-6.9-2.9-12.8-7.2-19-11.4
						c-3-2.1-6.1-4.1-9.4-5.8c-4.9-2.6-10.3-4.6-15.3-6.7c-5.3-2.2-10.8-4.9-16.4-6.6c-11.2-3.3-23.4-4-34.9-5.3
						c-3.8-0.4-7.6-0.7-11.4-0.7c-8.3-0.1-16.5,0.1-24.8,0.2c-35,0.4-69.9,0.7-104.9,1.1c-19.7,0.2-39.3,0.4-59,0.6
						c-13.2-0.5-25.5,2.3-37,8.3c-11.9,3.9-22.2,10.5-30.9,19.8c-9.4,8.7-16,19-19.8,30.9c-6,11.4-8.8,23.8-8.3,37
						c1.1,8.5,2.3,17,3.4,25.5c4.6,16.3,12.8,30.4,24.7,42.4C576.5,915.5,599.8,926.7,625.7,926.5L625.7,926.5z"/>
				</g>
			</g>
			<g class="st2">
				<g>
					<path class="st4" d="M786.9,901.4c4.9-3.8,10.1-6.8,15.8-9.3c-7.6,3.2-15.3,6.5-22.9,9.7c5.7-2.4,11.5-4,17.6-5
						c-8.5,1.1-17,2.3-25.5,3.4c3.7-0.5,7.4-0.8,11.2-0.5c-8.5-1.1-17-2.3-25.5-3.4c1.6,0.2,2.9,0.6,4.4,1.1
						c-7.6-3.2-15.3-6.5-22.9-9.7c1.4,0.7,2.5,1.3,3.7,2.3c-6.5-5-13-10-19.4-15c3.8,3.4,6.5,7.8,10.2,11.4
						c9.1,8.7,19.4,17,30.5,23.1c11.1,6,23,11,35.1,14.7c12.4,3.8,27.2,4.9,39.4,6.3c19,2.2,37.9-1.4,56.6-4.1
						c13.1-1.8,26.1-4.6,39.2-6.4c-8.5,1.1-17,2.3-25.5,3.4c9.5-1.3,19-1.8,28.5-1.4c9.8,0.4,19.5,1.5,29.3,1.4
						c16-0.2,32.6-1.9,47.8-6.5c24.3-7.4,41.2-17.9,60.1-34.3c9.4-8.7,16-19,19.8-30.9c6-11.4,8.8-23.8,8.3-37
						c0.5-13.2-2.3-25.5-8.3-37c-3.9-11.9-10.5-22.2-19.8-30.9c-18.3-16.8-42.3-29.3-67.9-28.1c-8.5,1.1-17,2.3-25.5,3.4
						c-16.3,4.6-30.4,12.8-42.4,24.7c-0.8,0.7-1.6,1.4-2.4,2c6.5-5,13-10,19.4-15c-3,2.2-6,4-9.4,5.5c7.6-3.2,15.3-6.5,22.9-9.7
						c-5.4,2.2-11,3.6-16.8,4.5c8.5-1.1,17-2.3,25.5-3.4c-18.4,2.2-36.8-1.6-55.2-0.6c-26.6,1.4-52.5,7.7-78.7,11.3
						c8.5-1.1,17-2.3,25.5-3.4c-10.6,1.4-21.2,1.9-31.8,0.5c8.5,1.1,17,2.3,25.5,3.4c-6.9-1-13.6-2.6-20-5.3
						c7.6,3.2,15.3,6.5,22.9,9.7c-4.4-2-8.6-4.3-12.5-7.3c6.5,5,13,10,19.4,15c-5.4-4.3-9-10-14-14.7c-6.5-5-13-10-19.4-15
						c-0.7-0.6-1.5-1.2-2.3-1.6c-7.8-4.9-16.8-8.7-25.8-10.8c-11.2-2.7-23.1-4.9-34.7-4.1c-14.8,1-30.8,2.4-45,7.7
						c-14.1,5.3-29.6,10.9-41.8,20.3c-11.2,6-20.2,14.3-26.9,24.7c-8.5,9.3-14.2,20.2-17.2,32.6c-4,12.8-4.6,25.5-1.7,38.3
						c0.6,12.8,4.4,24.7,11.4,35.7c13.2,20.5,32.9,38.5,57.4,44.1c8.5,1.1,17,2.3,25.5,3.4C755.8,914.5,771.9,910.1,786.9,901.4
						L786.9,901.4z"/>
				</g>
			</g>
			<g class="st2">
				<g>
					<path class="st4" d="M1314,767.7c-1.9-1.1-3.6-2.2-5.4-3.5c6.5,5,13,10,19.4,15c-10.2-8-19.9-17-30.8-24
						c-0.9-0.6-1.8-1.1-2.8-1.6c-7.6-4-17.3-7.8-25.4-10.8c-2.8-1-5.7-1.7-8.6-2.2c-20.4-3.5-40.5-5.3-61.2-4.8
						c-24.2,0.6-48.5,2.9-72.6-0.3c8.5,1.1,17,2.3,25.5,3.4c-10.3-1.5-20.3-3.9-29.9-7.8c7.6,3.2,15.3,6.5,22.9,9.7
						c-6.9-2.9-13.1-6.7-19.4-10.7c-12.5-8-26.5-15-40.9-18.3c-11.2-2.6-22.8-4.5-34.2-4.3c-5.9,0.1-12.4,1.4-18,2.1
						c-5.9,0.8-12.1,1.3-18,2.7c-14.8,3.5-29.7,11.2-43.3,17c-11.2,6-20.2,14.3-26.9,24.7c-8.5,9.3-14.2,20.2-17.2,32.6
						c-4,12.8-4.6,25.5-1.7,38.3c0.6,12.8,4.4,24.7,11.4,35.7c13.2,20.5,32.9,38.5,57.4,44.1c8.5,1.1,17,2.3,25.5,3.4
						c17.3-0.1,33.5-4.4,48.5-13.1c1.1-0.5,2.2-0.9,3.3-1.4c-7.6,3.2-15.3,6.5-22.9,9.7c7.2-3,14.5-5.7,22.3-6.9
						c-8.5,1.1-17,2.3-25.5,3.4c3.5-0.4,6.9-0.5,10.5-0.1c-8.5-1.1-17-2.3-25.5-3.4c3.4,0.5,6.6,1.4,9.8,2.7
						c-7.6-3.2-15.3-6.5-22.9-9.7c6.4,2.9,12.1,6.9,18.1,10.6c12.4,7.5,26.4,12.9,39.9,17.8c6.7,2.5,13.7,4.2,20.8,5.4
						c14.7,2.5,29.6,4.7,44.5,5.6c31.1,1.8,62.5-3.9,93.5,0.2c-8.5-1.1-17-2.3-25.5-3.4c3.6,0.6,7,1.4,10.4,2.7
						c-7.6-3.2-15.3-6.5-22.9-9.7c2.5,1.2,4.8,2.6,7,4.2c-6.5-5-13-10-19.4-15c11.1,8.6,21.3,18.7,33.6,25.6
						c11,7,22.9,10.8,35.7,11.4c12.8,2.9,25.5,2.3,38.3-1.7c12.5-3,23.4-8.7,32.6-17.2c10.5-6.8,18.7-15.7,24.7-26.9
						c11.8-22.3,17.7-49.3,9.7-74C1350.5,801.4,1336.1,780.1,1314,767.7L1314,767.7z"/>
				</g>
			</g>
			<g class="st2">
				<g>
					<path class="st4" d="M1294.5,885.8c3.8,0,7.7-0.1,11.5,0.1c-8.5-1.1-17-2.3-25.5-3.4c0.4,0.1,0.7,0.2,1.1,0.2
						c-7.6-3.2-15.3-6.5-22.9-9.7c0.3,0.2,0.6,0.4,0.9,0.6c-11.5-11.5-23-23-34.4-34.4c0.2,0.3,0.3,0.7,0.5,1
						c-4.4-16.2-8.7-32.3-13.1-48.5c0.1,1.7,0,3.4,0,5.1c0,17.9,5.2,35.7,14.3,51.1c7.9,13.3,22.6,29.3,36.5,36.5
						c0.9,0.6,1.8,1.1,2.9,1.5c7.6,3.2,15.3,6.5,22.9,9.7c16.3,4.5,35.4,5.3,52.7,5.7c27.8,0.7,54.8-2.9,82.3-6.6
						c-36.1-47-72.3-94-108.4-141c-0.1,0.3-0.3,0.6-0.4,0.9c5-6.5,10-13,15-19.4c-0.2,0.2-0.5,0.5-0.7,0.7c6.5-5,13-10,19.4-15
						c-0.3,0.2-0.6,0.3-0.9,0.5c7.6-3.2,15.3-6.5,22.9-9.7c-0.3,0.1-0.7,0.2-1,0.3c8.5-1.1,17-2.3,25.5-3.4c-0.3,0-0.7,0-1,0.1
						c8.5,1.1,17,2.3,25.5,3.4c-0.3-0.1-0.7-0.1-1-0.2c7.6,3.2,15.3,6.5,22.9,9.7c-0.3-0.1-0.6-0.3-0.9-0.4c6.5,5,13,10,19.4,15
						c-0.2-0.2-0.5-0.5-0.7-0.7c-18.2-17.2-42.6-28.1-67.9-28.1c-13.2-0.5-25.5,2.3-37,8.3c-11.9,3.9-22.2,10.5-30.9,19.8
						c-16.8,18.3-29.3,42.3-28.1,67.9c1.1,8.5,2.3,17,3.4,25.5c4.6,16.3,12.8,30.4,24.7,42.4c13.2,12.5,26.4,20.9,44,25.8
						c18.2,5.1,24.5,3.9,40.3,1.8c15.6-2.1,21.6-2.8,37.5-12.2c13.2-7.8,28.8-22.1,35.6-36.1c3.2-7.6,6.5-15.3,9.7-22.9
						c1.1-8.5,2.3-17,3.4-25.5c-1.1-8.5-2.3-17-3.4-25.5c-3-12.5-8.7-23.4-17.2-32.6c-4.3-7.2-10-13-17.2-17.2
						c-6-5.9-13-10.1-21.2-12.3c-7.5-4.3-15.6-6.5-24.2-6.6c-12.8-2.9-25.5-2.3-38.3,1.7c-0.6,0.1-1.3,0.2-1.9,0.3
						c8.5-1.1,17-2.3,25.5-3.4c-25.8,3.3-52.8,4.7-78.6,1.5c8.5,1.1,17,2.3,25.5,3.4c-1.2-0.2-2.3-0.4-3.4-0.8
						c7.6,3.2,15.3,6.5,22.9,9.7c-1-0.3-2-0.8-2.9-1.5c6.5,5,13,10,19.4,15c-0.8-0.6-1.5-1.3-2.1-2.1c5,6.5,10,13,15,19.4
						c-0.2-0.4-0.5-0.8-0.7-1.3c3.2,7.6,6.5,15.3,9.7,22.9c-0.2-0.5-0.3-0.9-0.5-1.4c1.1,8.5,2.3,17,3.4,25.5
						c-0.9-10.1-0.7-20.8-3.4-30.6c-3.2-7.6-6.5-15.3-9.7-22.9c-2-4-4.7-7.6-8-10.7c-4.3-7.2-10-13-17.2-17.2
						c-3.4-3-6.9-5.7-10.6-8.1c-5.7-3.3-17.8-8-24-9.9c-7.8-2.4-18.4-3.3-27.5-3.5c-3.2-0.1-6.3,0-9.5-0.1
						c-13.2-0.5-25.5,2.3-37,8.3c-11.9,3.9-22.2,10.5-30.9,19.8c-9.4,8.7-16,19-19.8,30.9c-6,11.4-8.8,23.8-8.3,37
						c1.1,8.5,2.3,17,3.4,25.5c4.6,16.3,12.8,30.4,24.7,42.4C1245.5,875,1268.5,885.6,1294.5,885.8L1294.5,885.8z"/>
				</g>
			</g>
			<g class="st2">
				<g>
					<path class="st4" d="M1353.6,709.8c-85.9-0.4-171.8,0.4-257.6,2.3c-42.8,1-85.5,2.2-128.3,3.8c-42.5,1.5-85.4,2.1-127.8,6.3
						c-30.9,3.1-61.3,8-91.3,15.8c-22.4,5.8-44.6,12.1-67.6,15.2c8.5-1.1,17-2.3,25.5-3.4c-15.8,2-31.7,2.6-47.5,0.5
						c8.5,1.1,17,2.3,25.5,3.4c-9.8-1.4-19.4-3.9-28.6-7.6c7.6,3.2,15.3,6.5,22.9,9.7c-0.5-0.2-1.1-0.5-1.6-0.7
						c-11-7-22.9-10.8-35.7-11.4c-12.8-2.9-25.5-2.3-38.3,1.7c-12.5,3-23.4,8.7-32.6,17.2c-10.5,6.8-18.7,15.7-24.7,26.9
						c-11.8,22.3-17.7,49.3-9.7,74c3.2,7.6,6.5,15.3,9.7,22.9c8.5,14.4,20,25.9,34.4,34.4c14.7,6.2,28.9,13.2,44.6,16.5
						c11.8,2.5,23.9,3.7,35.8,5.2c4.1,0.5,8.1,0.8,12.2,1c24.3,1,49.2-2.9,73-7.4c35-6.6,68.7-18.6,104-23.5
						c-8.5,1.1-17,2.3-25.5,3.4c33.6-4.5,67.6-5.1,101.4-6.5c34.5-1.4,68.9-2.6,103.4-3.6c68.9-2,137.9-3.3,206.9-3.9
						c39.1-0.3,78.3-0.4,117.4-0.2c13.2,0.5,25.5-2.3,37-8.3c11.9-3.9,22.2-10.5,30.9-19.8c9.4-8.7,16-19,19.8-30.9
						c6-11.4,8.8-23.8,8.3-37c-1.1-8.5-2.3-17-3.4-25.5c-4.6-16.3-12.8-30.4-24.7-42.4C1402.6,720.6,1379.6,709.9,1353.6,709.8
						L1353.6,709.8z"/>
				</g>
			</g>
			<g class="st2">
				<g>
					<path class="st4" d="M782,772.1c0.1-1.4,0.2-2.8,0.3-4.2c-1.1,8.5-2.3,17-3.4,25.5c0.5-3.2,1.3-6.3,2.5-9.3
						c-3.2,7.6-6.5,15.3-9.7,22.9c1.6-3.9,3.7-7.4,6.2-10.8c-5,6.5-10,13-15,19.4c3-3.7,6.3-7,10.1-9.9c-6.5,5-13,10-19.4,15
						c3.9-2.9,8-5.2,12.4-7.2c-7.6,3.2-15.3,6.5-22.9,9.7c5.1-2.1,10.3-3.5,15.8-4.2c-8.5,1.1-17,2.3-25.5,3.4
						c6.5-0.7,13-0.6,19.5,0.1c-8.5-1.1-17-2.3-25.5-3.4c10.8,1.5,21.1,4.7,31.1,8.9c-7.6-3.2-15.3-6.5-22.9-9.7
						c13.2,5.7,25.6,13.1,38,20.4c19,11.2,38.1,20.1,58.7,28.3c21,8.5,42.4,11.1,64.9,13.9c14.5,1.8,29,1.9,43.5,0
						c13.2,0.5,25.5-2.3,37-8.3c11.9-3.9,22.2-10.5,30.9-19.8c9.4-8.7,16-19,19.8-30.9c6-11.4,8.8-23.8,8.3-37
						c-1.1-8.5-2.3-17-3.4-25.5c-4.6-16.3-12.8-30.4-24.7-42.4c-6.5-5-13-10-19.4-15c-15-8.7-31.1-13.1-48.5-13.1
						c-14.5,1.9-29,1.9-43.5,0c8.5,1.1,17,2.3,25.5,3.4c-13.8-1.9-27.3-5.6-40.2-10.9c7.6,3.2,15.3,6.5,22.9,9.7
						c-14.4-6.1-27.7-14.1-41.1-22c-20.2-11.8-41.1-21.9-63.2-29.7c-7.1-2.5-14.3-4.4-21.7-5.5c-11.1-1.7-23.5-4-35.3-4.2
						c-7.9-0.2-15.6,1.2-23.4,2.3c-7.2,1-14.8,1.5-21.8,3.5c-10.4,3-20.6,7.9-30.3,12.4c-2.8,1.3-5.6,2.7-8.2,4.4
						c-9,5.8-17.6,12.7-25.7,19.7c-2.7,2.3-5.1,4.9-7.3,7.7c-6.7,8.3-14.5,16.8-19.5,26.4c-2.5,4.8-4.6,10.4-6.6,15.2
						c-2,4.8-4.7,10.1-6.2,15.4c-0.5,1.8-0.8,3.6-1.2,5.4c-1.6,9.7-3.3,19.8-3.8,29.7c-0.5,13.2,2.3,25.5,8.3,37
						c3.9,11.9,10.5,22.2,19.8,30.9c8.7,9.4,19,16,30.9,19.8c11.4,6,23.8,8.8,37,8.3c8.5-1.1,17-2.3,25.5-3.4
						c16.3-4.6,30.4-12.8,42.4-24.7c5-6.5,10-13,15-19.4C777.6,805.6,782,789.4,782,772.1L782,772.1z"/>
				</g>
			</g>
			<g class="st2">
				<g>
					<path class="st5" d="M580.7,969c72.1-3.8,144.1-10.2,215.8-19.2c28-3.5,56-7.4,83.9-11.4c-8.5,1.1-17,2.3-25.5,3.4
						c4.2-0.6,8.3-0.9,12.5-0.5c-8.5-1.1-17-2.3-25.5-3.4c1.7,0.3,3.3,0.7,5,1.3c-7.6-3.2-15.3-6.5-22.9-9.7
						c13.2,5.6,25.7,13.4,39.7,17.1c14.3,3.7,29.3,4.4,43.9,6.3c-8.5-1.1-17-2.3-25.5-3.4c5.3,0.8,10.5,1.8,15.5,3.9
						c-7.6-3.2-15.3-6.5-22.9-9.7c0.5,0.2,1,0.5,1.5,0.7c11,7,22.9,10.8,35.7,11.4c12.8,2.9,25.5,2.3,38.3-1.7
						c12.5-3,23.4-8.7,32.6-17.2c10.5-6.8,18.7-15.7,24.7-26.9c11.8-22.3,17.7-49.3,9.7-74c-3.2-7.6-6.5-15.3-9.7-22.9
						c-8.5-14.4-20-25.9-34.4-34.4c-10.9-5.2-23.4-11.5-35.9-13.6c-13-2.3-26.1-3.5-39.2-5.3c8.5,1.1,17,2.3,25.5,3.4
						c-4.8-0.7-9.5-1.7-14-3.4c7.6,3.2,15.3,6.5,22.9,9.7c-12.2-5.3-21.5-11.5-35.2-15.6c-1.4-0.4-2.8-0.7-4.2-1
						c-8.3-1.6-18.9-3.2-27.3-3.6c-3-0.1-6,0.1-9,0.4c-20.1,2.3-40.2,5.6-60.3,8.3c8.5-1.1,17-2.3,25.5-3.4
						c-80,10.7-160.5,18.3-241.2,22.5c-13.2-0.5-25.5,2.3-37,8.3c-11.9,3.9-22.2,10.5-30.9,19.8c-9.4,8.7-16,19-19.8,30.9
						c-6,11.4-8.8,23.8-8.3,37c1.1,8.5,2.3,17,3.4,25.5c4.6,16.3,12.8,30.4,24.7,42.4C531.1,957.6,555.3,970.4,580.7,969L580.7,969z
						"/>
				</g>
			</g>
			<g class="st2">
				<g>
					<path class="st5" d="M889.1,744.4c-22-3-43.3-6.1-65.4-5.2c-21.6,0.9-43.2,4.2-64.5,7.3c-27.5,4-54.6,9.8-82.2,13.6
						c8.5-1.1,17-2.3,25.5-3.4c-63,8.4-127,8.2-190-0.2c8.5,1.1,17,2.3,25.5,3.4c-37.6-5.1-74.9-13.2-111.2-24.2
						c-25.3-7.7-50.6-20.1-77.5-20.1c-27.2,0-55.4,10.9-74.4,30.8c-8,8.3-14.3,18.1-21.3,27.3c-6.4,8.3-12.8,16.6-19.1,24.9
						c-7,11-10.8,22.9-11.4,35.7c-2.9,12.8-2.3,25.5,1.7,38.3c3,12.5,8.7,23.4,17.2,32.6c6.8,10.5,15.7,18.7,26.9,24.7
						c22.3,11.8,49.3,17.7,74,9.7c7.6-3.2,15.3-6.5,22.9-9.7c14.4-8.5,25.9-20,34.4-34.4c7.6-9.9,15.1-19.7,22.7-29.6
						c-5,6.5-10,13-15,19.4c1.2-1.5,2.3-2.8,3.7-4.1c-6.5,5-13,10-19.4,15c0.7-0.6,1.5-1,2.4-1.3c-7.6,3.2-15.3,6.5-22.9,9.7
						c0.5-0.1,1-0.2,1.5-0.4c-8.5,1.1-17,2.3-25.5,3.4c1-0.1,2.1-0.1,3.1,0.1c-8.5-1.1-17-2.3-25.5-3.4c7.2,1.6,14.2,4.6,21.2,7
						c7.3,2.5,14.7,5,22.1,7.3c13.7,4.3,27.4,8.2,41.3,11.7c36.2,9,72.9,14.6,110,19.2c57.5,7.2,115.8,7.3,173.3,0.4
						c24.2-2.9,48.3-6.3,72.3-10.6c17.1-3,34.1-6.2,51.3-8.5c-8.5,1.1-17,2.3-25.5,3.4c23.4-3.1,46.9-4.4,70.4-1.4
						c-8.5-1.1-17-2.3-25.5-3.4c0.6,0.1,1.3,0.2,1.9,0.3c12.8,4,25.5,4.6,38.3,1.7c12.8-0.6,24.7-4.4,35.7-11.4
						c11.2-6,20.2-14.3,26.9-24.7c8.5-9.3,14.2-20.2,17.2-32.6c1.1-8.5,2.3-17,3.4-25.5c-0.1-17.3-4.4-33.5-13.1-48.5
						c-5-6.5-10-13-15-19.4C919.5,757.2,905.3,749,889.1,744.4L889.1,744.4z"/>
				</g>
			</g>
			<g class="st2">
				<g>
					<path class="st5" d="M784.6,899.7c13.2,0.5,25.5-2.3,37-8.3c11.9-3.9,22.2-10.5,30.9-19.8c9.4-8.7,16-19,19.8-30.9
						c6-11.4,8.8-23.8,8.3-37c-1.1-8.5-2.3-17-3.4-25.5c-4.6-16.3-12.8-30.4-24.7-42.4c-18.8-17.2-41.9-28.1-67.9-28.1
						c-13.2-0.5-25.5,2.3-37,8.3c-11.9,3.9-22.2,10.5-30.9,19.8c-9.4,8.7-16,19-19.8,30.9c-6,11.4-8.8,23.8-8.3,37
						c1.1,8.5,2.3,17,3.4,25.5c4.6,16.3,12.8,30.4,24.7,42.4C735.5,888.8,758.6,899.7,784.6,899.7L784.6,899.7z"/>
				</g>
			</g>
			<g class="st2">
				<g>
					<path class="st5" d="M567.7,936.4c13.2,0.5,25.5-2.3,37-8.3c11.9-3.9,22.2-10.5,30.9-19.8c9.4-8.7,16-19,19.8-30.9
						c6-11.4,8.8-23.8,8.3-37c-1.1-8.5-2.3-17-3.4-25.5c-4.6-16.3-12.8-30.4-24.7-42.4c-18.8-17.2-41.9-28.1-67.9-28.1
						c-13.2-0.5-25.5,2.3-37,8.3c-11.9,3.9-22.2,10.5-30.9,19.8c-9.4,8.7-16,19-19.8,30.9c-6,11.4-8.8,23.8-8.3,37
						c1.1,8.5,2.3,17,3.4,25.5c4.6,16.3,12.8,30.4,24.7,42.4C518.6,925.5,541.7,936.4,567.7,936.4L567.7,936.4z"/>
				</g>
			</g>
			<line class="st6" x1="298.4" y1="664.2" x2="298.2" y2="664.2"/>
			<polygon class="st7" points="262.5,639.4 262.6,639.6 262.9,639.3 			"/>
		</g>
	</g>
</g>
<g id="Layer_2">
	<g>
		<path class="st6" d="M253.4,496.1l2.1,22.5c0.5,0,1.1-0.1,1.6-0.1l-2.1-22.6c-0.5,0.1-0.9,0.2-1.4,0.2
			C253.6,496.1,253.5,496.1,253.4,496.1z"/>
		<path class="st6" d="M255.9,523l1.6-0.1l-0.4-4.4c-0.5,0-1.1,0.1-1.6,0.1L255.9,523z"/>
		<path class="st8" d="M213.8,491.2c-5.4,0.5-9.4,5.3-8.9,10.8c0.5,5.4,5.3,9.4,10.8,8.9c0.9-0.1,1.7-0.3,2.4-0.5
			c1.2-0.4,2.2-1.1,3.1-1.9c2.3-2,3.7-5.1,3.3-8.4C224,494.7,219.2,490.7,213.8,491.2z"/>
		<path class="st8" d="M251.8,476.4c-0.1,0-0.1,0-0.2,0c-5.3,0.6-9.2,5.4-8.8,10.7c0.4,4.7,4.1,8.3,8.5,8.9c0.7,0.1,1.3,0.1,2,0.1
			c0.1,0,0.1,0,0.2,0c0.5,0,0.9-0.1,1.4-0.2c4.7-1.1,8-5.6,7.6-10.5C262.1,479.9,257.3,475.9,251.8,476.4z"/>
		<path class="st8" d="M291.5,484.1c-5.4,0.5-9.5,5.3-9,10.8c0.3,3.4,2.3,6.3,5.2,7.8c1.1,0.6,2.2,1,3.5,1.1c0.7,0.1,1.4,0.1,2.1,0
			c5.4-0.5,9.5-5.3,9-10.8C301.7,487.6,296.9,483.6,291.5,484.1z"/>
		<path class="st9" d="M284.6,553.1c-1.3-14.1-13.8-24.5-27.9-23.2c-0.1,0-0.1,0-0.2,0l0.4,4.8c6.4-0.6,12.1,4.2,12.7,10.6
			c0.6,6.4-4.2,12.1-10.6,12.7l2.1,22.9c0.1,0,0.1,0,0.2,0C275.5,579.6,285.9,567.2,284.6,553.1z"/>
		<path d="M253.3,539.5c0.3,3.1-2.1,5.9-5.3,6.2c-0.6,0.1-1.1,0-1.7-0.1c0,0.6,0,1.2,0,1.9c0.6,6.4,6.3,11.2,12.7,10.6l-2.1-23.3
			c-1.8,0.2-3.5,0.7-5,1.6C252.7,537.2,253.2,538.3,253.3,539.5z"/>
		<path d="M269.7,545.3c-0.6-6.4-6.3-11.2-12.7-10.6l2.1,23.3C265.5,557.4,270.3,551.7,269.7,545.3z"/>
		<path class="st9" d="M256.5,529.9c-14,1.4-24.3,13.8-23,27.9c1.3,14,13.7,24.4,27.7,23.2l-2.1-22.9c-6.4,0.6-12.1-4.2-12.7-10.6
			c-0.1-0.6-0.1-1.2,0-1.9c0.5,0.1,1.1,0.1,1.7,0.1c3.2-0.3,5.6-3.1,5.3-6.2c-0.1-1.2-0.6-2.3-1.4-3.2c1.5-0.9,3.2-1.5,5-1.6
			L256.5,529.9z"/>
		<g>
			<path class="st10" d="M266.1,634.4l-0.1-1.1l-1,1.2C265.3,634.5,265.7,634.5,266.1,634.4z"/>
		</g>
		<g>
			<path class="st10" d="M266.1,634.4l-0.1-1.1l-1,1.2C265.3,634.5,265.7,634.5,266.1,634.4z"/>
		</g>
		<path class="st11" d="M339.9,585.8c-0.2-1-0.4-2-0.7-3c-0.5-2.1-1.1-4.3-1.9-6.5c-0.1-0.3-0.2-0.6-0.3-0.9
			c-0.2-0.6-0.4-1.2-0.6-1.8c-0.7-2-1.6-3.9-2.4-5.8c-0.4-0.8-0.8-1.6-1.2-2.4c-0.9-1.8-1.9-3.6-2.9-5.2c-0.5-0.7-0.9-1.4-1.4-2.1
			c-1.4-2.1-2.9-4-4.4-5.6c-0.6-0.6-1.1-1.2-1.7-1.7c-1.8-1.7-3.5-3.1-5.3-4.1c-0.3-0.2-0.6-0.4-0.9-0.5c-0.4-0.2-0.8-0.4-1.2-0.6
			c0,0-0.1,0-0.1,0c-1.9-0.8-3.7-1.1-5.4-1c0.9,1.4,1.8,2.9,2.6,4.4c0.1,0.2,0.2,0.4,0.3,0.6c0.3,0.6,0.6,1.2,0.9,1.8
			c1,2.1,1.9,4.4,2.7,6.6c0,0.1,0.1,0.3,0.1,0.4c0.3,0.9,0.6,1.8,0.8,2.8c0.8,2.9,1.3,5.9,1.7,8.9c0,0.4,0.1,0.7,0.1,1.1
			c0.1,0.8,0.1,1.6,0.2,2.4c0.2,3,0.1,6-0.2,9c-0.2,1.5-0.4,3.1-0.7,4.6c-0.9,5-2.5,9.8-4.6,14.3c0,0.1,0,0.1-0.1,0.2
			c-0.1,1.4-0.3,2.8-0.4,4.2c-0.1,0.5-0.1,0.9-0.1,1.4c1,1.3,2.1,2.6,3.1,3.7c0.6,0.6,1.1,1.2,1.7,1.7c1.6,1.5,3.3,2.8,4.9,3.7
			c0.7,0.4,1.5,0.8,2.2,1.1c2.7,1.1,5.3,1.3,7.7,0.5c5.8-2,8.9-9.9,8.8-20.3c0-1.2-0.1-2.4-0.2-3.6
			C340.8,591.4,340.4,588.7,339.9,585.8z"/>
		<g>
			<path class="st6" d="M318.6,570.1c-0.3-3.1-0.9-6-1.7-8.9c-0.3-0.9-0.5-1.9-0.8-2.8c0-0.1-0.1-0.3-0.1-0.4
				c-0.8-2.3-1.7-4.5-2.7-6.6c-0.3-0.6-0.6-1.2-0.9-1.8c-0.1-0.2-0.2-0.4-0.3-0.6c-0.8-1.5-1.7-3-2.6-4.4
				c-6.1-9.3-14.7-16.6-24.8-21.1l6.5-19.7c-1.2-0.2-2.4-0.5-3.5-1.1l-6.4,19.4c-7.5-2.8-15.7-4.1-24.2-3.6l0.4,4.4l-1.6,0.1
				l0.6,6.8c0.1,0,0.1,0,0.2,0c14.1-1.3,26.6,9.1,27.9,23.2s-9.1,26.6-23.2,27.9c-0.1,0-0.1,0-0.2,0l2.4,26.3l0.3,3.4l0.9,9.5
				l0.3,3.4l0.9,9.9l0.1,1.1c0.8-0.1,1.6-0.2,2.4-0.3c3-0.4,6-1,8.8-1.9c0.5-0.1,0.9-0.3,1.4-0.4c0,0.7,0.1,1.5,0.1,2.4
				c0.1,2.2,0.3,4.9,0.7,7.9c0.1,1.1,0.2,2.2,0.4,3.3c0.2,1.4,0.4,2.8,0.6,4.2c0.2,1.1,0.4,2.1,0.5,3.1c0.2,1.1,0.4,2.1,0.6,3
				c0.7,3.1,1.4,5.4,2,7.2c0.4,1.1,0.7,2,1,2.6c0.1,0.2,0.2,0.4,0.3,0.6c0.1,0.2,0.2,0.3,0.2,0.4l0.2,0l38.2-3.5
				c0,0-0.5-13.5-18.4-11.8c1.2-4.6,2.2-9.4,3.2-14.3c0.3-1.6,0.6-3.2,0.9-4.9c0.7-3.9,1.3-7.9,1.9-11.8c0.2-1.5,0.4-3,0.6-4.5
				c0.4-2.9,0.7-5.8,1-8.7c0.1-0.5,0.1-0.9,0.1-1.4c0.2-1.4,0.3-2.8,0.4-4.2c0-0.1,0-0.1,0.1-0.2c2.1-4.5,3.7-9.3,4.6-14.3
				c0.3-1.5,0.5-3,0.7-4.6c0.3-2.9,0.4-6,0.2-9c0-0.8-0.1-1.6-0.2-2.4C318.7,570.9,318.6,570.5,318.6,570.1z"/>
		</g>
		<g>
			<path class="st10" d="M251.4,496l2.1,22.8c-8.2,1-15.7,3.7-22.4,7.7c-0.6,0.4-1.2,0.8-1.8,1.1c0.6-0.4,1.3-0.8,1.9-1.2l-9.9-17.9
				c-0.9,0.8-2,1.4-3.1,1.9l10,18.1c0,0,0,0-0.1,0c-9.7,6.7-17.3,16.2-21.5,27.2c-0.7,1.7-1.2,3.4-1.7,5.2c-0.6,2-1,4.1-1.4,6.2
				l-0.6,0.8c0.1,0.5,0.2,1,0.3,1.5c-0.1,0.7-0.2,1.5-0.2,2.2c-0.3,3.3-0.3,6.6,0,10.1c0,0.1,0,0.2,0,0.3c0.1,1,0.2,2,0.4,3
				c0.4,2.8,1,5.6,1.8,8.3c0.3,0.9,0.6,1.8,0.9,2.7c0.8,2.3,1.8,4.5,2.8,6.7c0.4,0.8,0.8,1.6,1.2,2.3c0.9,1.6,1.9,3.2,3,4.7
				c0.1,0.4,0.3,0.9,0.4,1.3c0.3,0.9,0.5,1.9,0.8,2.8c0.3,1.1,0.7,2.3,1,3.4c3.4,11.4,7.3,23.2,11.8,34c0.3,0.8,0.7,1.7,1.1,2.5
				l-6.1,7.3c-4.2,2.2-5.9,5.3-6.6,8c-0.7,2.6-0.4,4.6-0.4,4.6l5.7-0.5l3.4-0.3l9.9-0.9l3.4-0.3l7.8-0.7c0.8,0,1.5-0.1,2.2-0.2
				l6.1-0.6c0,0,0.8-2.2,1.3-7c0.1-1.2,0.2-2.6,0.3-4.1c0.1-2,0.1-4.3,0-6.9c0-0.6,0-1.2-0.1-1.8c0-1.2-0.1-2.4-0.2-3.6
				c-0.2-3.9-0.6-7.2-0.9-9.9c-0.1-0.9-0.2-1.8-0.3-2.5c0.7,0.1,1.5,0.2,2.3,0.2c3,0.2,6,0.3,9.1,0l1-1.2l-0.9-9.9l-0.3-3.4
				l-0.9-9.5l0,0l-0.3-3.4l-2.4-26.3c-14,1.2-26.4-9.2-27.7-23.2c-1.3-14,9-26.5,23-27.9l-0.6-6.8l-0.4-4.4l-2.1-22.5
				C252.7,496.1,252,496.1,251.4,496z"/>
		</g>
		<path class="st11" d="M214.1,613.7c-0.3-0.9-0.5-1.9-0.8-2.8c-0.1-0.4-0.3-0.9-0.4-1.3c-1.1-1.5-2-3.1-3-4.7
			c-0.4-0.8-0.8-1.5-1.2-2.3c-1.1-2.1-2-4.4-2.8-6.7c-0.3-0.9-0.6-1.8-0.9-2.7c-0.8-2.7-1.4-5.5-1.8-8.3c-0.1-1-0.3-2-0.4-3
			c0-0.1,0-0.2,0-0.3c-0.3-3.4-0.3-6.8,0-10.1c0.1-0.7,0.1-1.5,0.2-2.2c-0.1-0.5-0.2-1-0.3-1.5l0.6-0.8c0.3-2.1,0.8-4.1,1.4-6.2
			c0.5-1.8,1.1-3.5,1.7-5.2c-0.7,0.1-1.4,0.3-2,0.5c-1,0.3-1.9,0.8-2.9,1.4c-0.2,0.2-0.5,0.3-0.7,0.5c-4.2,3-8.1,8.5-11,15.7
			c-1.8,4.4-3.3,9.4-4.3,14.8c-0.2,0.8-0.3,1.7-0.4,2.5c-0.1,0.7-0.2,1.4-0.3,2.2c-0.5,3.7-0.7,7.3-0.6,10.8c0,1.2,0.1,2.4,0.2,3.6
			c0.2,3.2,0.7,6.2,1.3,8.9c0.2,1,0.5,1.9,0.8,2.8c0.8,2.5,1.8,4.7,2.9,6.5c0.5,0.7,0.9,1.4,1.5,2c1.5,1.8,3.3,3.1,5.3,3.7
			c0.4,0.1,0.9,0.2,1.3,0.3c0.5,0.1,1,0.1,1.5,0.1c5.8-0.1,11.8-5.8,16.2-14.8C214.8,616,214.4,614.9,214.1,613.7z"/>
		<circle class="st9" cx="210.6" cy="498" r="3.2"/>
		<circle class="st9" cx="248.6" cy="483.1" r="3.2"/>
		<circle class="st9" cx="288.5" cy="489.6" r="3.2"/>
	</g>
</g>
</svg>
